<?xml version="1.0" encoding="utf-8" standalone="no"?>
<!DOCTYPE svg PUBLIC "-//W3C//DTD SVG 1.1//EN"
  "http://www.w3.org/Graphics/SVG/1.1/DTD/svg11.dtd">
<svg xmlns:xlink="http://www.w3.org/1999/xlink" width="864pt" height="360pt" viewBox="0 0 864 360" xmlns="http://www.w3.org/2000/svg" version="1.1">
 <metadata>
  <rdf:RDF xmlns:dc="http://purl.org/dc/elements/1.1/" xmlns:cc="http://creativecommons.org/ns#" xmlns:rdf="http://www.w3.org/1999/02/22-rdf-syntax-ns#">
   <cc:Work>
    <dc:type rdf:resource="http://purl.org/dc/dcmitype/StillImage"/>
    <dc:date>2022-10-10T20:34:31.754990</dc:date>
    <dc:format>image/svg+xml</dc:format>
    <dc:creator>
     <cc:Agent>
      <dc:title>Matplotlib v3.6.1, https://matplotlib.org/</dc:title>
     </cc:Agent>
    </dc:creator>
   </cc:Work>
  </rdf:RDF>
 </metadata>
 <defs>
  <style type="text/css">*{stroke-linejoin: round; stroke-linecap: butt}</style>
 </defs>
 <g id="figure_1">
  <g id="patch_1">
   <path d="M 0 360 
L 864 360 
L 864 0 
L 0 0 
L 0 360 
z
" style="fill: none; opacity: 0"/>
  </g>
  <g id="axes_1">
   <g id="patch_2">
    <path d="M 108 320.4 
L 777.6 320.4 
L 777.6 43.2 
L 108 43.2 
L 108 320.4 
z
" style="fill: none; opacity: 0"/>
   </g>
   <g id="matplotlib.axis_1">
    <g id="xtick_1">
     <g id="line2d_1">
      <path d="M 192.026349 320.4 
L 192.026349 43.2 
" clip-path="url(#p46e2a8c7eb)" style="fill: none; stroke-dasharray: 5.12,1.28,0.8,1.28; stroke-dashoffset: 0; stroke: #b0b0b0; stroke-width: 0.8"/>
     </g>
     <g id="line2d_2">
      <defs>
       <path id="m100455aa45" d="M 0 0 
L 0 3.5 
" style="stroke: #a9a9a9; stroke-width: 0.8"/>
      </defs>
      <g>
       <use xlink:href="#m100455aa45" x="192.026349" y="320.4" style="fill: #a9a9a9; stroke: #a9a9a9; stroke-width: 0.8"/>
      </g>
     </g>
     <g id="text_1">
      <!-- 2021-09 -->
      <g style="fill: #a9a9a9" transform="translate(171.134943 334.998438) scale(0.1 -0.1)">
       <defs>
        <path id="DejaVuSans-32" d="M 1228 531 
L 3431 531 
L 3431 0 
L 469 0 
L 469 531 
Q 828 903 1448 1529 
Q 2069 2156 2228 2338 
Q 2531 2678 2651 2914 
Q 2772 3150 2772 3378 
Q 2772 3750 2511 3984 
Q 2250 4219 1831 4219 
Q 1534 4219 1204 4116 
Q 875 4013 500 3803 
L 500 4441 
Q 881 4594 1212 4672 
Q 1544 4750 1819 4750 
Q 2544 4750 2975 4387 
Q 3406 4025 3406 3419 
Q 3406 3131 3298 2873 
Q 3191 2616 2906 2266 
Q 2828 2175 2409 1742 
Q 1991 1309 1228 531 
z
" transform="scale(0.015625)"/>
        <path id="DejaVuSans-30" d="M 2034 4250 
Q 1547 4250 1301 3770 
Q 1056 3291 1056 2328 
Q 1056 1369 1301 889 
Q 1547 409 2034 409 
Q 2525 409 2770 889 
Q 3016 1369 3016 2328 
Q 3016 3291 2770 3770 
Q 2525 4250 2034 4250 
z
M 2034 4750 
Q 2819 4750 3233 4129 
Q 3647 3509 3647 2328 
Q 3647 1150 3233 529 
Q 2819 -91 2034 -91 
Q 1250 -91 836 529 
Q 422 1150 422 2328 
Q 422 3509 836 4129 
Q 1250 4750 2034 4750 
z
" transform="scale(0.015625)"/>
        <path id="DejaVuSans-31" d="M 794 531 
L 1825 531 
L 1825 4091 
L 703 3866 
L 703 4441 
L 1819 4666 
L 2450 4666 
L 2450 531 
L 3481 531 
L 3481 0 
L 794 0 
L 794 531 
z
" transform="scale(0.015625)"/>
        <path id="DejaVuSans-2d" d="M 313 2009 
L 1997 2009 
L 1997 1497 
L 313 1497 
L 313 2009 
z
" transform="scale(0.015625)"/>
        <path id="DejaVuSans-39" d="M 703 97 
L 703 672 
Q 941 559 1184 500 
Q 1428 441 1663 441 
Q 2288 441 2617 861 
Q 2947 1281 2994 2138 
Q 2813 1869 2534 1725 
Q 2256 1581 1919 1581 
Q 1219 1581 811 2004 
Q 403 2428 403 3163 
Q 403 3881 828 4315 
Q 1253 4750 1959 4750 
Q 2769 4750 3195 4129 
Q 3622 3509 3622 2328 
Q 3622 1225 3098 567 
Q 2575 -91 1691 -91 
Q 1453 -91 1209 -44 
Q 966 3 703 97 
z
M 1959 2075 
Q 2384 2075 2632 2365 
Q 2881 2656 2881 3163 
Q 2881 3666 2632 3958 
Q 2384 4250 1959 4250 
Q 1534 4250 1286 3958 
Q 1038 3666 1038 3163 
Q 1038 2656 1286 2365 
Q 1534 2075 1959 2075 
z
" transform="scale(0.015625)"/>
       </defs>
       <use xlink:href="#DejaVuSans-32"/>
       <use xlink:href="#DejaVuSans-30" x="63.623047"/>
       <use xlink:href="#DejaVuSans-32" x="127.246094"/>
       <use xlink:href="#DejaVuSans-31" x="190.869141"/>
       <use xlink:href="#DejaVuSans-2d" x="254.492188"/>
       <use xlink:href="#DejaVuSans-30" x="290.576172"/>
       <use xlink:href="#DejaVuSans-39" x="354.199219"/>
      </g>
     </g>
    </g>
    <g id="xtick_2">
     <g id="line2d_3">
      <path d="M 275.846583 320.4 
L 275.846583 43.2 
" clip-path="url(#p46e2a8c7eb)" style="fill: none; stroke-dasharray: 5.12,1.28,0.8,1.28; stroke-dashoffset: 0; stroke: #b0b0b0; stroke-width: 0.8"/>
     </g>
     <g id="line2d_4">
      <g>
       <use xlink:href="#m100455aa45" x="275.846583" y="320.4" style="fill: #a9a9a9; stroke: #a9a9a9; stroke-width: 0.8"/>
      </g>
     </g>
     <g id="text_2">
      <!-- 2021-11 -->
      <g style="fill: #a9a9a9" transform="translate(254.955177 334.998438) scale(0.1 -0.1)">
       <use xlink:href="#DejaVuSans-32"/>
       <use xlink:href="#DejaVuSans-30" x="63.623047"/>
       <use xlink:href="#DejaVuSans-32" x="127.246094"/>
       <use xlink:href="#DejaVuSans-31" x="190.869141"/>
       <use xlink:href="#DejaVuSans-2d" x="254.492188"/>
       <use xlink:href="#DejaVuSans-31" x="290.576172"/>
       <use xlink:href="#DejaVuSans-31" x="354.199219"/>
      </g>
     </g>
    </g>
    <g id="xtick_3">
     <g id="line2d_5">
      <path d="M 359.666817 320.4 
L 359.666817 43.2 
" clip-path="url(#p46e2a8c7eb)" style="fill: none; stroke-dasharray: 5.12,1.28,0.8,1.28; stroke-dashoffset: 0; stroke: #b0b0b0; stroke-width: 0.8"/>
     </g>
     <g id="line2d_6">
      <g>
       <use xlink:href="#m100455aa45" x="359.666817" y="320.4" style="fill: #a9a9a9; stroke: #a9a9a9; stroke-width: 0.8"/>
      </g>
     </g>
     <g id="text_3">
      <!-- 2022-01 -->
      <g style="fill: #a9a9a9" transform="translate(338.775411 334.998438) scale(0.1 -0.1)">
       <use xlink:href="#DejaVuSans-32"/>
       <use xlink:href="#DejaVuSans-30" x="63.623047"/>
       <use xlink:href="#DejaVuSans-32" x="127.246094"/>
       <use xlink:href="#DejaVuSans-32" x="190.869141"/>
       <use xlink:href="#DejaVuSans-2d" x="254.492188"/>
       <use xlink:href="#DejaVuSans-30" x="290.576172"/>
       <use xlink:href="#DejaVuSans-31" x="354.199219"/>
      </g>
     </g>
    </g>
    <g id="xtick_4">
     <g id="line2d_7">
      <path d="M 440.738847 320.4 
L 440.738847 43.2 
" clip-path="url(#p46e2a8c7eb)" style="fill: none; stroke-dasharray: 5.12,1.28,0.8,1.28; stroke-dashoffset: 0; stroke: #b0b0b0; stroke-width: 0.8"/>
     </g>
     <g id="line2d_8">
      <g>
       <use xlink:href="#m100455aa45" x="440.738847" y="320.4" style="fill: #a9a9a9; stroke: #a9a9a9; stroke-width: 0.8"/>
      </g>
     </g>
     <g id="text_4">
      <!-- 2022-03 -->
      <g style="fill: #a9a9a9" transform="translate(419.84744 334.998438) scale(0.1 -0.1)">
       <defs>
        <path id="DejaVuSans-33" d="M 2597 2516 
Q 3050 2419 3304 2112 
Q 3559 1806 3559 1356 
Q 3559 666 3084 287 
Q 2609 -91 1734 -91 
Q 1441 -91 1130 -33 
Q 819 25 488 141 
L 488 750 
Q 750 597 1062 519 
Q 1375 441 1716 441 
Q 2309 441 2620 675 
Q 2931 909 2931 1356 
Q 2931 1769 2642 2001 
Q 2353 2234 1838 2234 
L 1294 2234 
L 1294 2753 
L 1863 2753 
Q 2328 2753 2575 2939 
Q 2822 3125 2822 3475 
Q 2822 3834 2567 4026 
Q 2313 4219 1838 4219 
Q 1578 4219 1281 4162 
Q 984 4106 628 3988 
L 628 4550 
Q 988 4650 1302 4700 
Q 1616 4750 1894 4750 
Q 2613 4750 3031 4423 
Q 3450 4097 3450 3541 
Q 3450 3153 3228 2886 
Q 3006 2619 2597 2516 
z
" transform="scale(0.015625)"/>
       </defs>
       <use xlink:href="#DejaVuSans-32"/>
       <use xlink:href="#DejaVuSans-30" x="63.623047"/>
       <use xlink:href="#DejaVuSans-32" x="127.246094"/>
       <use xlink:href="#DejaVuSans-32" x="190.869141"/>
       <use xlink:href="#DejaVuSans-2d" x="254.492188"/>
       <use xlink:href="#DejaVuSans-30" x="290.576172"/>
       <use xlink:href="#DejaVuSans-33" x="354.199219"/>
      </g>
     </g>
    </g>
    <g id="xtick_5">
     <g id="line2d_9">
      <path d="M 524.559081 320.4 
L 524.559081 43.2 
" clip-path="url(#p46e2a8c7eb)" style="fill: none; stroke-dasharray: 5.12,1.28,0.8,1.28; stroke-dashoffset: 0; stroke: #b0b0b0; stroke-width: 0.8"/>
     </g>
     <g id="line2d_10">
      <g>
       <use xlink:href="#m100455aa45" x="524.559081" y="320.4" style="fill: #a9a9a9; stroke: #a9a9a9; stroke-width: 0.8"/>
      </g>
     </g>
     <g id="text_5">
      <!-- 2022-05 -->
      <g style="fill: #a9a9a9" transform="translate(503.667674 334.998438) scale(0.1 -0.1)">
       <defs>
        <path id="DejaVuSans-35" d="M 691 4666 
L 3169 4666 
L 3169 4134 
L 1269 4134 
L 1269 2991 
Q 1406 3038 1543 3061 
Q 1681 3084 1819 3084 
Q 2600 3084 3056 2656 
Q 3513 2228 3513 1497 
Q 3513 744 3044 326 
Q 2575 -91 1722 -91 
Q 1428 -91 1123 -41 
Q 819 9 494 109 
L 494 744 
Q 775 591 1075 516 
Q 1375 441 1709 441 
Q 2250 441 2565 725 
Q 2881 1009 2881 1497 
Q 2881 1984 2565 2268 
Q 2250 2553 1709 2553 
Q 1456 2553 1204 2497 
Q 953 2441 691 2322 
L 691 4666 
z
" transform="scale(0.015625)"/>
       </defs>
       <use xlink:href="#DejaVuSans-32"/>
       <use xlink:href="#DejaVuSans-30" x="63.623047"/>
       <use xlink:href="#DejaVuSans-32" x="127.246094"/>
       <use xlink:href="#DejaVuSans-32" x="190.869141"/>
       <use xlink:href="#DejaVuSans-2d" x="254.492188"/>
       <use xlink:href="#DejaVuSans-30" x="290.576172"/>
       <use xlink:href="#DejaVuSans-35" x="354.199219"/>
      </g>
     </g>
    </g>
    <g id="xtick_6">
     <g id="line2d_11">
      <path d="M 608.379315 320.4 
L 608.379315 43.2 
" clip-path="url(#p46e2a8c7eb)" style="fill: none; stroke-dasharray: 5.12,1.28,0.8,1.28; stroke-dashoffset: 0; stroke: #b0b0b0; stroke-width: 0.8"/>
     </g>
     <g id="line2d_12">
      <g>
       <use xlink:href="#m100455aa45" x="608.379315" y="320.4" style="fill: #a9a9a9; stroke: #a9a9a9; stroke-width: 0.8"/>
      </g>
     </g>
     <g id="text_6">
      <!-- 2022-07 -->
      <g style="fill: #a9a9a9" transform="translate(587.487908 334.998438) scale(0.1 -0.1)">
       <defs>
        <path id="DejaVuSans-37" d="M 525 4666 
L 3525 4666 
L 3525 4397 
L 1831 0 
L 1172 0 
L 2766 4134 
L 525 4134 
L 525 4666 
z
" transform="scale(0.015625)"/>
       </defs>
       <use xlink:href="#DejaVuSans-32"/>
       <use xlink:href="#DejaVuSans-30" x="63.623047"/>
       <use xlink:href="#DejaVuSans-32" x="127.246094"/>
       <use xlink:href="#DejaVuSans-32" x="190.869141"/>
       <use xlink:href="#DejaVuSans-2d" x="254.492188"/>
       <use xlink:href="#DejaVuSans-30" x="290.576172"/>
       <use xlink:href="#DejaVuSans-37" x="354.199219"/>
      </g>
     </g>
    </g>
    <g id="xtick_7">
     <g id="line2d_13">
      <path d="M 693.573651 320.4 
L 693.573651 43.2 
" clip-path="url(#p46e2a8c7eb)" style="fill: none; stroke-dasharray: 5.12,1.28,0.8,1.28; stroke-dashoffset: 0; stroke: #b0b0b0; stroke-width: 0.8"/>
     </g>
     <g id="line2d_14">
      <g>
       <use xlink:href="#m100455aa45" x="693.573651" y="320.4" style="fill: #a9a9a9; stroke: #a9a9a9; stroke-width: 0.8"/>
      </g>
     </g>
     <g id="text_7">
      <!-- 2022-09 -->
      <g style="fill: #a9a9a9" transform="translate(672.682244 334.998438) scale(0.1 -0.1)">
       <use xlink:href="#DejaVuSans-32"/>
       <use xlink:href="#DejaVuSans-30" x="63.623047"/>
       <use xlink:href="#DejaVuSans-32" x="127.246094"/>
       <use xlink:href="#DejaVuSans-32" x="190.869141"/>
       <use xlink:href="#DejaVuSans-2d" x="254.492188"/>
       <use xlink:href="#DejaVuSans-30" x="290.576172"/>
       <use xlink:href="#DejaVuSans-39" x="354.199219"/>
      </g>
     </g>
    </g>
    <g id="xtick_8">
     <g id="line2d_15">
      <path d="M 777.393885 320.4 
L 777.393885 43.2 
" clip-path="url(#p46e2a8c7eb)" style="fill: none; stroke-dasharray: 5.12,1.28,0.8,1.28; stroke-dashoffset: 0; stroke: #b0b0b0; stroke-width: 0.8"/>
     </g>
     <g id="line2d_16">
      <g>
       <use xlink:href="#m100455aa45" x="777.393885" y="320.4" style="fill: #a9a9a9; stroke: #a9a9a9; stroke-width: 0.8"/>
      </g>
     </g>
     <g id="text_8">
      <!-- 2022-11 -->
      <g style="fill: #a9a9a9" transform="translate(756.502478 334.998438) scale(0.1 -0.1)">
       <use xlink:href="#DejaVuSans-32"/>
       <use xlink:href="#DejaVuSans-30" x="63.623047"/>
       <use xlink:href="#DejaVuSans-32" x="127.246094"/>
       <use xlink:href="#DejaVuSans-32" x="190.869141"/>
       <use xlink:href="#DejaVuSans-2d" x="254.492188"/>
       <use xlink:href="#DejaVuSans-31" x="290.576172"/>
       <use xlink:href="#DejaVuSans-31" x="354.199219"/>
      </g>
     </g>
    </g>
   </g>
   <g id="matplotlib.axis_2">
    <g id="ytick_1">
     <g id="line2d_17">
      <path d="M 108 307.890032 
L 777.6 307.890032 
" clip-path="url(#p46e2a8c7eb)" style="fill: none; stroke-dasharray: 5.12,1.28,0.8,1.28; stroke-dashoffset: 0; stroke: #b0b0b0; stroke-width: 0.8"/>
     </g>
     <g id="line2d_18">
      <defs>
       <path id="me771f00955" d="M 0 0 
L -3.5 0 
" style="stroke: #a9a9a9; stroke-width: 0.8"/>
      </defs>
      <g>
       <use xlink:href="#me771f00955" x="108" y="307.890032" style="fill: #a9a9a9; stroke: #a9a9a9; stroke-width: 0.8"/>
      </g>
     </g>
     <g id="text_9">
      <!-- 0 -->
      <g style="fill: #a9a9a9" transform="translate(94.6375 311.689251) scale(0.1 -0.1)">
       <use xlink:href="#DejaVuSans-30"/>
      </g>
     </g>
    </g>
    <g id="ytick_2">
     <g id="line2d_19">
      <path d="M 108 271.87717 
L 777.6 271.87717 
" clip-path="url(#p46e2a8c7eb)" style="fill: none; stroke-dasharray: 5.12,1.28,0.8,1.28; stroke-dashoffset: 0; stroke: #b0b0b0; stroke-width: 0.8"/>
     </g>
     <g id="line2d_20">
      <g>
       <use xlink:href="#me771f00955" x="108" y="271.87717" style="fill: #a9a9a9; stroke: #a9a9a9; stroke-width: 0.8"/>
      </g>
     </g>
     <g id="text_10">
      <!-- 400 -->
      <g style="fill: #a9a9a9" transform="translate(81.9125 275.676389) scale(0.1 -0.1)">
       <defs>
        <path id="DejaVuSans-34" d="M 2419 4116 
L 825 1625 
L 2419 1625 
L 2419 4116 
z
M 2253 4666 
L 3047 4666 
L 3047 1625 
L 3713 1625 
L 3713 1100 
L 3047 1100 
L 3047 0 
L 2419 0 
L 2419 1100 
L 313 1100 
L 313 1709 
L 2253 4666 
z
" transform="scale(0.015625)"/>
       </defs>
       <use xlink:href="#DejaVuSans-34"/>
       <use xlink:href="#DejaVuSans-30" x="63.623047"/>
       <use xlink:href="#DejaVuSans-30" x="127.246094"/>
      </g>
     </g>
    </g>
    <g id="ytick_3">
     <g id="line2d_21">
      <path d="M 108 235.864309 
L 777.6 235.864309 
" clip-path="url(#p46e2a8c7eb)" style="fill: none; stroke-dasharray: 5.12,1.28,0.8,1.28; stroke-dashoffset: 0; stroke: #b0b0b0; stroke-width: 0.8"/>
     </g>
     <g id="line2d_22">
      <g>
       <use xlink:href="#me771f00955" x="108" y="235.864309" style="fill: #a9a9a9; stroke: #a9a9a9; stroke-width: 0.8"/>
      </g>
     </g>
     <g id="text_11">
      <!-- 800 -->
      <g style="fill: #a9a9a9" transform="translate(81.9125 239.663527) scale(0.1 -0.1)">
       <defs>
        <path id="DejaVuSans-38" d="M 2034 2216 
Q 1584 2216 1326 1975 
Q 1069 1734 1069 1313 
Q 1069 891 1326 650 
Q 1584 409 2034 409 
Q 2484 409 2743 651 
Q 3003 894 3003 1313 
Q 3003 1734 2745 1975 
Q 2488 2216 2034 2216 
z
M 1403 2484 
Q 997 2584 770 2862 
Q 544 3141 544 3541 
Q 544 4100 942 4425 
Q 1341 4750 2034 4750 
Q 2731 4750 3128 4425 
Q 3525 4100 3525 3541 
Q 3525 3141 3298 2862 
Q 3072 2584 2669 2484 
Q 3125 2378 3379 2068 
Q 3634 1759 3634 1313 
Q 3634 634 3220 271 
Q 2806 -91 2034 -91 
Q 1263 -91 848 271 
Q 434 634 434 1313 
Q 434 1759 690 2068 
Q 947 2378 1403 2484 
z
M 1172 3481 
Q 1172 3119 1398 2916 
Q 1625 2713 2034 2713 
Q 2441 2713 2670 2916 
Q 2900 3119 2900 3481 
Q 2900 3844 2670 4047 
Q 2441 4250 2034 4250 
Q 1625 4250 1398 4047 
Q 1172 3844 1172 3481 
z
" transform="scale(0.015625)"/>
       </defs>
       <use xlink:href="#DejaVuSans-38"/>
       <use xlink:href="#DejaVuSans-30" x="63.623047"/>
       <use xlink:href="#DejaVuSans-30" x="127.246094"/>
      </g>
     </g>
    </g>
    <g id="ytick_4">
     <g id="line2d_23">
      <path d="M 108 199.851447 
L 777.6 199.851447 
" clip-path="url(#p46e2a8c7eb)" style="fill: none; stroke-dasharray: 5.12,1.28,0.8,1.28; stroke-dashoffset: 0; stroke: #b0b0b0; stroke-width: 0.8"/>
     </g>
     <g id="line2d_24">
      <g>
       <use xlink:href="#me771f00955" x="108" y="199.851447" style="fill: #a9a9a9; stroke: #a9a9a9; stroke-width: 0.8"/>
      </g>
     </g>
     <g id="text_12">
      <!-- 1200 -->
      <g style="fill: #a9a9a9" transform="translate(75.55 203.650666) scale(0.1 -0.1)">
       <use xlink:href="#DejaVuSans-31"/>
       <use xlink:href="#DejaVuSans-32" x="63.623047"/>
       <use xlink:href="#DejaVuSans-30" x="127.246094"/>
       <use xlink:href="#DejaVuSans-30" x="190.869141"/>
      </g>
     </g>
    </g>
    <g id="ytick_5">
     <g id="line2d_25">
      <path d="M 108 163.838585 
L 777.6 163.838585 
" clip-path="url(#p46e2a8c7eb)" style="fill: none; stroke-dasharray: 5.12,1.28,0.8,1.28; stroke-dashoffset: 0; stroke: #b0b0b0; stroke-width: 0.8"/>
     </g>
     <g id="line2d_26">
      <g>
       <use xlink:href="#me771f00955" x="108" y="163.838585" style="fill: #a9a9a9; stroke: #a9a9a9; stroke-width: 0.8"/>
      </g>
     </g>
     <g id="text_13">
      <!-- 1600 -->
      <g style="fill: #a9a9a9" transform="translate(75.55 167.637804) scale(0.1 -0.1)">
       <defs>
        <path id="DejaVuSans-36" d="M 2113 2584 
Q 1688 2584 1439 2293 
Q 1191 2003 1191 1497 
Q 1191 994 1439 701 
Q 1688 409 2113 409 
Q 2538 409 2786 701 
Q 3034 994 3034 1497 
Q 3034 2003 2786 2293 
Q 2538 2584 2113 2584 
z
M 3366 4563 
L 3366 3988 
Q 3128 4100 2886 4159 
Q 2644 4219 2406 4219 
Q 1781 4219 1451 3797 
Q 1122 3375 1075 2522 
Q 1259 2794 1537 2939 
Q 1816 3084 2150 3084 
Q 2853 3084 3261 2657 
Q 3669 2231 3669 1497 
Q 3669 778 3244 343 
Q 2819 -91 2113 -91 
Q 1303 -91 875 529 
Q 447 1150 447 2328 
Q 447 3434 972 4092 
Q 1497 4750 2381 4750 
Q 2619 4750 2861 4703 
Q 3103 4656 3366 4563 
z
" transform="scale(0.015625)"/>
       </defs>
       <use xlink:href="#DejaVuSans-31"/>
       <use xlink:href="#DejaVuSans-36" x="63.623047"/>
       <use xlink:href="#DejaVuSans-30" x="127.246094"/>
       <use xlink:href="#DejaVuSans-30" x="190.869141"/>
      </g>
     </g>
    </g>
    <g id="ytick_6">
     <g id="line2d_27">
      <path d="M 108 127.825723 
L 777.6 127.825723 
" clip-path="url(#p46e2a8c7eb)" style="fill: none; stroke-dasharray: 5.12,1.28,0.8,1.28; stroke-dashoffset: 0; stroke: #b0b0b0; stroke-width: 0.8"/>
     </g>
     <g id="line2d_28">
      <g>
       <use xlink:href="#me771f00955" x="108" y="127.825723" style="fill: #a9a9a9; stroke: #a9a9a9; stroke-width: 0.8"/>
      </g>
     </g>
     <g id="text_14">
      <!-- 2000 -->
      <g style="fill: #a9a9a9" transform="translate(75.55 131.624942) scale(0.1 -0.1)">
       <use xlink:href="#DejaVuSans-32"/>
       <use xlink:href="#DejaVuSans-30" x="63.623047"/>
       <use xlink:href="#DejaVuSans-30" x="127.246094"/>
       <use xlink:href="#DejaVuSans-30" x="190.869141"/>
      </g>
     </g>
    </g>
    <g id="ytick_7">
     <g id="line2d_29">
      <path d="M 108 91.812862 
L 777.6 91.812862 
" clip-path="url(#p46e2a8c7eb)" style="fill: none; stroke-dasharray: 5.12,1.28,0.8,1.28; stroke-dashoffset: 0; stroke: #b0b0b0; stroke-width: 0.8"/>
     </g>
     <g id="line2d_30">
      <g>
       <use xlink:href="#me771f00955" x="108" y="91.812862" style="fill: #a9a9a9; stroke: #a9a9a9; stroke-width: 0.8"/>
      </g>
     </g>
     <g id="text_15">
      <!-- 2400 -->
      <g style="fill: #a9a9a9" transform="translate(75.55 95.61208) scale(0.1 -0.1)">
       <use xlink:href="#DejaVuSans-32"/>
       <use xlink:href="#DejaVuSans-34" x="63.623047"/>
       <use xlink:href="#DejaVuSans-30" x="127.246094"/>
       <use xlink:href="#DejaVuSans-30" x="190.869141"/>
      </g>
     </g>
    </g>
    <g id="ytick_8">
     <g id="line2d_31">
      <path d="M 108 55.8 
L 777.6 55.8 
" clip-path="url(#p46e2a8c7eb)" style="fill: none; stroke-dasharray: 5.12,1.28,0.8,1.28; stroke-dashoffset: 0; stroke: #b0b0b0; stroke-width: 0.8"/>
     </g>
     <g id="line2d_32">
      <g>
       <use xlink:href="#me771f00955" x="108" y="55.8" style="fill: #a9a9a9; stroke: #a9a9a9; stroke-width: 0.8"/>
      </g>
     </g>
     <g id="text_16">
      <!-- 2800 -->
      <g style="fill: #a9a9a9" transform="translate(75.55 59.599219) scale(0.1 -0.1)">
       <use xlink:href="#DejaVuSans-32"/>
       <use xlink:href="#DejaVuSans-38" x="63.623047"/>
       <use xlink:href="#DejaVuSans-30" x="127.246094"/>
       <use xlink:href="#DejaVuSans-30" x="190.869141"/>
      </g>
     </g>
    </g>
   </g>
   <g id="line2d_33">
    <path d="M 138.436364 307.529904 
L 143.932772 307.079743 
L 145.306875 306.899678 
L 146.680977 306.899678 
L 148.055079 306.359486 
L 150.803283 306.179421 
L 160.421999 304.288746 
L 163.170203 304.01865 
L 164.544305 303.748553 
L 168.666612 303.478457 
L 170.040714 302.758199 
L 171.414816 302.398071 
L 172.788919 300.777492 
L 174.163021 299.87717 
L 175.537123 296.726045 
L 176.911225 296.545981 
L 178.285327 295.465595 
L 179.65943 294.925402 
L 181.033532 294.115113 
L 185.155838 290.783923 
L 186.52994 290.063666 
L 189.278145 288.893248 
L 190.652247 287.902894 
L 192.026349 287.362701 
L 194.774554 285.65209 
L 196.148656 285.201929 
L 197.522758 282.951125 
L 198.89686 281.87074 
L 200.270962 281.06045 
L 201.645065 280.430225 
L 207.141473 279.619936 
L 211.26378 278.899678 
L 214.011984 278.719614 
L 215.386087 278.449518 
L 216.760189 277.72926 
L 222.256598 277.2791 
L 226.378904 276.828939 
L 227.753006 276.378778 
L 234.623517 275.028296 
L 237.371722 274.758199 
L 238.745824 274.398071 
L 242.868131 273.857878 
L 244.242233 273.137621 
L 245.616335 272.957556 
L 248.364539 271.967203 
L 251.112744 271.697106 
L 252.486846 271.246945 
L 257.983255 270.436656 
L 259.357357 269.986495 
L 262.105561 269.536334 
L 263.479663 269.536334 
L 270.350174 268.636013 
L 273.098379 267.825723 
L 274.472481 267.465595 
L 277.220685 267.195498 
L 278.594788 267.105466 
L 282.717094 266.295177 
L 284.091196 265.754984 
L 285.465299 263.954341 
L 286.839401 263.414148 
L 288.213503 262.693891 
L 289.587605 262.513826 
L 290.961707 262.153698 
L 292.33581 261.973633 
L 295.084014 260.803215 
L 296.458116 260.713183 
L 303.328627 258.822508 
L 304.702729 258.822508 
L 307.450934 258.462379 
L 310.199138 257.65209 
L 314.321445 256.571704 
L 315.695547 256.481672 
L 318.443751 255.311254 
L 319.817853 255.13119 
L 321.191956 254.500965 
L 323.94016 254.230868 
L 325.314262 254.140836 
L 329.436569 253.420579 
L 332.184773 252.970418 
L 336.30708 252.160129 
L 337.681182 251.709968 
L 339.055284 251.529904 
L 341.803489 250.53955 
L 343.177591 249.72926 
L 344.551693 249.369132 
L 345.925795 249.189068 
L 348.674 248.288746 
L 351.422204 246.758199 
L 352.796306 245.857878 
L 354.170408 245.677814 
L 355.544511 245.227653 
L 356.918613 245.047588 
L 358.292715 244.68746 
L 359.666817 244.507395 
L 361.040919 243.87717 
L 363.789124 243.336977 
L 365.163226 242.61672 
L 366.537328 242.076527 
L 367.91143 241.716399 
L 369.285533 241.536334 
L 370.659635 240.996141 
L 376.156044 239.915756 
L 378.904248 238.745338 
L 380.27835 238.475241 
L 381.652452 237.935048 
L 383.026554 237.754984 
L 384.400657 237.124759 
L 385.774759 236.76463 
L 388.522963 236.584566 
L 391.271168 235.594212 
L 392.64527 235.414148 
L 394.019372 235.414148 
L 395.393474 234.783923 
L 398.141679 234.333762 
L 399.515781 233.793569 
L 402.263985 233.703537 
L 407.760394 232.98328 
L 410.508598 231.632797 
L 413.256803 230.372347 
L 414.630905 230.012219 
L 416.005007 229.111897 
L 417.379109 228.661736 
L 420.127314 227.401286 
L 421.501416 227.13119 
L 422.875518 226.500965 
L 424.24962 226.050804 
L 425.623723 225.150482 
L 426.997825 224.430225 
L 428.371927 222.989711 
L 429.746029 220.738907 
L 431.120131 218.848232 
L 432.494234 218.398071 
L 433.868336 218.308039 
L 435.242438 217.407717 
L 436.61654 216.327331 
L 437.990642 215.967203 
L 439.364745 215.246945 
L 440.738847 214.976849 
L 442.112949 213.716399 
L 443.487051 213.35627 
L 447.609358 211.465595 
L 448.98346 209.845016 
L 450.357562 207.594212 
L 451.731664 206.783923 
L 453.105766 204.533119 
L 454.479869 203.182637 
L 455.853971 202.462379 
L 457.228073 202.102251 
L 458.602175 201.111897 
L 461.35038 199.761415 
L 462.724482 198.771061 
L 464.098584 197.600643 
L 465.472686 196.610289 
L 466.846788 195.8 
L 468.220891 193.819293 
L 469.594993 190.668167 
L 470.969095 188.597428 
L 472.343197 187.517042 
L 473.717299 186.886817 
L 477.839606 183.195498 
L 481.961913 179.864309 
L 483.336015 178.693891 
L 484.710117 176.713183 
L 486.084219 175.362701 
L 487.458321 174.282315 
L 490.206526 172.39164 
L 492.95473 170.410932 
L 494.328832 169.240514 
L 495.702935 168.880386 
L 497.077037 168.250161 
L 501.199343 165.909325 
L 503.947548 164.558842 
L 506.695752 162.127974 
L 508.069854 160.417363 
L 509.443956 159.42701 
L 510.818059 158.61672 
L 512.192161 158.256592 
L 513.566263 157.536334 
L 514.940365 156.545981 
L 517.68857 155.105466 
L 519.062672 154.83537 
L 520.436774 153.935048 
L 521.810876 153.214791 
L 523.184978 152.314469 
L 524.559081 150.963987 
L 525.933183 149.973633 
L 527.307285 149.523473 
L 528.681387 148.533119 
L 530.055489 147.902894 
L 531.429592 147.002572 
L 532.803694 146.372347 
L 534.177796 145.472026 
L 535.551898 144.301608 
L 538.300103 143.311254 
L 539.674205 142.681029 
L 541.048307 142.410932 
L 542.422409 141.510611 
L 543.796511 141.240514 
L 552.041125 137.999357 
L 553.415227 137.639228 
L 554.789329 137.099035 
L 557.537533 136.558842 
L 558.911636 135.20836 
L 560.285738 134.127974 
L 561.65984 133.587781 
L 567.156249 130.436656 
L 568.530351 129.896463 
L 569.904453 129.536334 
L 571.278555 128.455949 
L 572.652658 128.005788 
L 575.400862 126.205145 
L 576.774964 125.484887 
L 580.897271 124.584566 
L 583.645475 123.774277 
L 587.767782 121.433441 
L 589.141884 121.253376 
L 590.515986 120.713183 
L 591.890088 120.533119 
L 593.26419 119.992926 
L 594.638293 119.092605 
L 596.012395 118.012219 
L 597.386497 117.111897 
L 598.760599 116.841801 
L 600.134701 116.121543 
L 601.508804 115.851447 
L 602.882906 115.311254 
L 604.257008 114.3209 
L 605.63111 113.87074 
L 607.005212 113.240514 
L 612.501621 111.709968 
L 613.875723 111.619936 
L 615.249826 111.169775 
L 617.99803 109.909325 
L 619.372132 109.459164 
L 620.746234 109.189068 
L 624.868541 107.20836 
L 627.616745 106.398071 
L 628.990848 106.308039 
L 631.739052 105.677814 
L 633.113154 104.957556 
L 634.487256 104.597428 
L 637.235461 103.42701 
L 641.357767 101.446302 
L 644.105972 99.645659 
L 645.480074 99.195498 
L 646.854176 98.385209 
L 648.228278 97.845016 
L 649.60238 97.034727 
L 652.350585 96.314469 
L 653.724687 95.50418 
L 656.472891 94.333762 
L 659.221096 93.793569 
L 660.595198 92.803215 
L 661.9693 92.082958 
L 663.343402 91.812862 
L 664.717505 91.272669 
L 666.091607 90.552412 
L 667.465709 90.282315 
L 668.839811 89.562058 
L 674.33622 88.751768 
L 677.084424 87.491318 
L 678.458527 86.410932 
L 679.832629 83.890032 
L 681.206731 83.529904 
L 682.580833 83.349839 
L 683.954935 82.989711 
L 686.70314 81.459164 
L 688.077242 80.918971 
L 689.451344 80.198714 
L 690.825446 79.838585 
L 693.573651 78.488103 
L 696.321855 77.137621 
L 699.07006 75.967203 
L 700.444162 75.066881 
L 701.818264 74.526688 
L 705.94057 73.35627 
L 708.688775 72.005788 
L 710.062877 71.375563 
L 711.436979 71.105466 
L 715.559286 69.394855 
L 718.30749 67.684244 
L 719.681592 66.603859 
L 721.055695 65.883601 
L 722.429797 65.613505 
L 723.803899 64.98328 
L 725.178001 64.893248 
L 730.67441 63.002572 
L 732.048512 62.91254 
L 733.422614 61.922186 
L 734.796717 61.472026 
L 736.170819 60.841801 
L 740.293125 59.401286 
L 741.667228 58.590997 
L 743.04133 58.140836 
L 744.415432 57.240514 
L 747.163636 55.8 
L 747.163636 55.8 
" clip-path="url(#p46e2a8c7eb)" style="fill: none; stroke: #1f77b4; stroke-width: 1.5; stroke-linecap: square"/>
   </g>
   <g id="line2d_34">
    <path d="M 139.810466 307.8 
L 142.55867 307.8 
L 145.306875 307.439871 
L 153.551488 307.349839 
L 157.673794 307.169775 
L 161.796101 307.079743 
L 164.544305 306.989711 
L 168.666612 306.989711 
L 170.040714 306.629582 
L 174.163021 306.53955 
L 181.033532 305.72926 
L 192.026349 305.099035 
L 193.400451 305.099035 
L 194.774554 304.828939 
L 198.89686 304.738907 
L 201.645065 304.378778 
L 207.141473 304.378778 
L 208.515576 304.198714 
L 215.386087 304.108682 
L 219.508393 303.928617 
L 231.875313 303.838585 
L 234.623517 303.748553 
L 240.119926 303.658521 
L 244.242233 303.478457 
L 249.738641 303.478457 
L 251.112744 303.298392 
L 255.23505 303.20836 
L 260.731459 302.938264 
L 270.350174 302.848232 
L 273.098379 302.758199 
L 278.594788 302.668167 
L 282.717094 302.127974 
L 289.587605 302.037942 
L 296.458116 301.677814 
L 303.328627 301.587781 
L 307.450934 301.407717 
L 310.199138 301.317685 
L 314.321445 300.867524 
L 318.443751 300.68746 
L 322.566058 300.597428 
L 325.314262 300.507395 
L 328.062467 300.507395 
L 329.436569 300.327331 
L 333.558875 300.327331 
L 337.681182 299.87717 
L 341.803489 299.787138 
L 344.551693 299.697106 
L 347.299897 299.697106 
L 352.796306 299.066881 
L 354.170408 298.976849 
L 355.544511 298.706752 
L 361.040919 298.61672 
L 365.163226 298.256592 
L 367.91143 297.986495 
L 374.781941 297.626367 
L 378.904248 297.536334 
L 383.026554 297.35627 
L 384.400657 297.35627 
L 387.148861 297.086174 
L 389.897065 296.996141 
L 391.271168 296.996141 
L 392.64527 296.816077 
L 395.393474 296.726045 
L 402.263985 296.365916 
L 405.01219 296.275884 
L 409.134496 296.09582 
L 413.256803 296.005788 
L 416.005007 295.915756 
L 422.875518 295.825723 
L 428.371927 295.195498 
L 429.746029 295.195498 
L 432.494234 294.925402 
L 435.242438 294.83537 
L 440.738847 294.385209 
L 442.112949 294.205145 
L 443.487051 293.845016 
L 446.235255 293.664952 
L 447.609358 293.304823 
L 451.731664 292.944695 
L 454.479869 292.314469 
L 458.602175 292.134405 
L 459.976277 292.134405 
L 461.35038 291.954341 
L 462.724482 291.954341 
L 465.472686 291.50418 
L 470.969095 290.513826 
L 472.343197 290.513826 
L 473.717299 290.333762 
L 477.839606 290.24373 
L 495.702935 289.073312 
L 497.077037 288.803215 
L 501.199343 288.533119 
L 503.947548 288.082958 
L 506.695752 287.812862 
L 509.443956 287.72283 
L 512.192161 287.72283 
L 513.566263 287.362701 
L 514.940365 287.182637 
L 517.68857 287.092605 
L 527.307285 286.372347 
L 531.429592 285.562058 
L 534.177796 285.472026 
L 541.048307 285.111897 
L 545.170614 285.021865 
L 563.033942 283.941479 
L 565.782147 283.941479 
L 568.530351 283.671383 
L 571.278555 283.671383 
L 575.400862 283.221222 
L 580.897271 282.951125 
L 583.645475 282.861093 
L 585.019577 282.681029 
L 590.515986 282.590997 
L 600.134701 282.050804 
L 607.005212 281.960772 
L 609.753417 281.87074 
L 611.127519 281.87074 
L 612.501621 281.600643 
L 615.249826 281.510611 
L 623.494439 281.420579 
L 628.990848 281.150482 
L 633.113154 281.06045 
L 634.487256 280.790354 
L 639.983665 280.700322 
L 644.105972 280.520257 
L 648.228278 280.430225 
L 650.976483 280.340193 
L 653.724687 280.250161 
L 664.717505 279.619936 
L 671.588016 279.529904 
L 675.710322 279.169775 
L 678.458527 278.899678 
L 681.206731 278.809646 
L 683.954935 278.719614 
L 685.329038 278.53955 
L 689.451344 278.449518 
L 690.825446 278.089389 
L 696.321855 277.819293 
L 708.688775 277.72926 
L 712.811081 277.369132 
L 718.30749 276.738907 
L 721.055695 276.648875 
L 726.552103 276.558842 
L 732.048512 275.928617 
L 738.919023 275.568489 
L 741.667228 275.478457 
L 747.163636 275.20836 
L 747.163636 275.20836 
" clip-path="url(#p46e2a8c7eb)" style="fill: none; stroke: #ff7f0e; stroke-width: 1.5; stroke-linecap: square"/>
   </g>
   <g id="patch_3">
    <path d="M 108 320.4 
L 108 43.2 
" style="fill: none; stroke: #a9a9a9; stroke-width: 0.8; stroke-linejoin: miter; stroke-linecap: square"/>
   </g>
   <g id="patch_4">
    <path d="M 777.6 320.4 
L 777.6 43.2 
" style="fill: none"/>
   </g>
   <g id="patch_5">
    <path d="M 108 320.4 
L 777.6 320.4 
" style="fill: none; stroke: #a9a9a9; stroke-width: 0.8; stroke-linejoin: miter; stroke-linecap: square"/>
   </g>
   <g id="patch_6">
    <path d="M 108 43.2 
L 777.6 43.2 
" style="fill: none"/>
   </g>
   <g id="text_17">
    <!-- get_subscribe history -->
    <g style="fill: #a9a9a9" transform="translate(378.6075 37.2) scale(0.12 -0.12)">
     <defs>
      <path id="DejaVuSans-67" d="M 2906 1791 
Q 2906 2416 2648 2759 
Q 2391 3103 1925 3103 
Q 1463 3103 1205 2759 
Q 947 2416 947 1791 
Q 947 1169 1205 825 
Q 1463 481 1925 481 
Q 2391 481 2648 825 
Q 2906 1169 2906 1791 
z
M 3481 434 
Q 3481 -459 3084 -895 
Q 2688 -1331 1869 -1331 
Q 1566 -1331 1297 -1286 
Q 1028 -1241 775 -1147 
L 775 -588 
Q 1028 -725 1275 -790 
Q 1522 -856 1778 -856 
Q 2344 -856 2625 -561 
Q 2906 -266 2906 331 
L 2906 616 
Q 2728 306 2450 153 
Q 2172 0 1784 0 
Q 1141 0 747 490 
Q 353 981 353 1791 
Q 353 2603 747 3093 
Q 1141 3584 1784 3584 
Q 2172 3584 2450 3431 
Q 2728 3278 2906 2969 
L 2906 3500 
L 3481 3500 
L 3481 434 
z
" transform="scale(0.015625)"/>
      <path id="DejaVuSans-65" d="M 3597 1894 
L 3597 1613 
L 953 1613 
Q 991 1019 1311 708 
Q 1631 397 2203 397 
Q 2534 397 2845 478 
Q 3156 559 3463 722 
L 3463 178 
Q 3153 47 2828 -22 
Q 2503 -91 2169 -91 
Q 1331 -91 842 396 
Q 353 884 353 1716 
Q 353 2575 817 3079 
Q 1281 3584 2069 3584 
Q 2775 3584 3186 3129 
Q 3597 2675 3597 1894 
z
M 3022 2063 
Q 3016 2534 2758 2815 
Q 2500 3097 2075 3097 
Q 1594 3097 1305 2825 
Q 1016 2553 972 2059 
L 3022 2063 
z
" transform="scale(0.015625)"/>
      <path id="DejaVuSans-74" d="M 1172 4494 
L 1172 3500 
L 2356 3500 
L 2356 3053 
L 1172 3053 
L 1172 1153 
Q 1172 725 1289 603 
Q 1406 481 1766 481 
L 2356 481 
L 2356 0 
L 1766 0 
Q 1100 0 847 248 
Q 594 497 594 1153 
L 594 3053 
L 172 3053 
L 172 3500 
L 594 3500 
L 594 4494 
L 1172 4494 
z
" transform="scale(0.015625)"/>
      <path id="DejaVuSans-5f" d="M 3263 -1063 
L 3263 -1509 
L -63 -1509 
L -63 -1063 
L 3263 -1063 
z
" transform="scale(0.015625)"/>
      <path id="DejaVuSans-73" d="M 2834 3397 
L 2834 2853 
Q 2591 2978 2328 3040 
Q 2066 3103 1784 3103 
Q 1356 3103 1142 2972 
Q 928 2841 928 2578 
Q 928 2378 1081 2264 
Q 1234 2150 1697 2047 
L 1894 2003 
Q 2506 1872 2764 1633 
Q 3022 1394 3022 966 
Q 3022 478 2636 193 
Q 2250 -91 1575 -91 
Q 1294 -91 989 -36 
Q 684 19 347 128 
L 347 722 
Q 666 556 975 473 
Q 1284 391 1588 391 
Q 1994 391 2212 530 
Q 2431 669 2431 922 
Q 2431 1156 2273 1281 
Q 2116 1406 1581 1522 
L 1381 1569 
Q 847 1681 609 1914 
Q 372 2147 372 2553 
Q 372 3047 722 3315 
Q 1072 3584 1716 3584 
Q 2034 3584 2315 3537 
Q 2597 3491 2834 3397 
z
" transform="scale(0.015625)"/>
      <path id="DejaVuSans-75" d="M 544 1381 
L 544 3500 
L 1119 3500 
L 1119 1403 
Q 1119 906 1312 657 
Q 1506 409 1894 409 
Q 2359 409 2629 706 
Q 2900 1003 2900 1516 
L 2900 3500 
L 3475 3500 
L 3475 0 
L 2900 0 
L 2900 538 
Q 2691 219 2414 64 
Q 2138 -91 1772 -91 
Q 1169 -91 856 284 
Q 544 659 544 1381 
z
M 1991 3584 
L 1991 3584 
z
" transform="scale(0.015625)"/>
      <path id="DejaVuSans-62" d="M 3116 1747 
Q 3116 2381 2855 2742 
Q 2594 3103 2138 3103 
Q 1681 3103 1420 2742 
Q 1159 2381 1159 1747 
Q 1159 1113 1420 752 
Q 1681 391 2138 391 
Q 2594 391 2855 752 
Q 3116 1113 3116 1747 
z
M 1159 2969 
Q 1341 3281 1617 3432 
Q 1894 3584 2278 3584 
Q 2916 3584 3314 3078 
Q 3713 2572 3713 1747 
Q 3713 922 3314 415 
Q 2916 -91 2278 -91 
Q 1894 -91 1617 61 
Q 1341 213 1159 525 
L 1159 0 
L 581 0 
L 581 4863 
L 1159 4863 
L 1159 2969 
z
" transform="scale(0.015625)"/>
      <path id="DejaVuSans-63" d="M 3122 3366 
L 3122 2828 
Q 2878 2963 2633 3030 
Q 2388 3097 2138 3097 
Q 1578 3097 1268 2742 
Q 959 2388 959 1747 
Q 959 1106 1268 751 
Q 1578 397 2138 397 
Q 2388 397 2633 464 
Q 2878 531 3122 666 
L 3122 134 
Q 2881 22 2623 -34 
Q 2366 -91 2075 -91 
Q 1284 -91 818 406 
Q 353 903 353 1747 
Q 353 2603 823 3093 
Q 1294 3584 2113 3584 
Q 2378 3584 2631 3529 
Q 2884 3475 3122 3366 
z
" transform="scale(0.015625)"/>
      <path id="DejaVuSans-72" d="M 2631 2963 
Q 2534 3019 2420 3045 
Q 2306 3072 2169 3072 
Q 1681 3072 1420 2755 
Q 1159 2438 1159 1844 
L 1159 0 
L 581 0 
L 581 3500 
L 1159 3500 
L 1159 2956 
Q 1341 3275 1631 3429 
Q 1922 3584 2338 3584 
Q 2397 3584 2469 3576 
Q 2541 3569 2628 3553 
L 2631 2963 
z
" transform="scale(0.015625)"/>
      <path id="DejaVuSans-69" d="M 603 3500 
L 1178 3500 
L 1178 0 
L 603 0 
L 603 3500 
z
M 603 4863 
L 1178 4863 
L 1178 4134 
L 603 4134 
L 603 4863 
z
" transform="scale(0.015625)"/>
      <path id="DejaVuSans-20" transform="scale(0.015625)"/>
      <path id="DejaVuSans-68" d="M 3513 2113 
L 3513 0 
L 2938 0 
L 2938 2094 
Q 2938 2591 2744 2837 
Q 2550 3084 2163 3084 
Q 1697 3084 1428 2787 
Q 1159 2491 1159 1978 
L 1159 0 
L 581 0 
L 581 4863 
L 1159 4863 
L 1159 2956 
Q 1366 3272 1645 3428 
Q 1925 3584 2291 3584 
Q 2894 3584 3203 3211 
Q 3513 2838 3513 2113 
z
" transform="scale(0.015625)"/>
      <path id="DejaVuSans-6f" d="M 1959 3097 
Q 1497 3097 1228 2736 
Q 959 2375 959 1747 
Q 959 1119 1226 758 
Q 1494 397 1959 397 
Q 2419 397 2687 759 
Q 2956 1122 2956 1747 
Q 2956 2369 2687 2733 
Q 2419 3097 1959 3097 
z
M 1959 3584 
Q 2709 3584 3137 3096 
Q 3566 2609 3566 1747 
Q 3566 888 3137 398 
Q 2709 -91 1959 -91 
Q 1206 -91 779 398 
Q 353 888 353 1747 
Q 353 2609 779 3096 
Q 1206 3584 1959 3584 
z
" transform="scale(0.015625)"/>
      <path id="DejaVuSans-79" d="M 2059 -325 
Q 1816 -950 1584 -1140 
Q 1353 -1331 966 -1331 
L 506 -1331 
L 506 -850 
L 844 -850 
Q 1081 -850 1212 -737 
Q 1344 -625 1503 -206 
L 1606 56 
L 191 3500 
L 800 3500 
L 1894 763 
L 2988 3500 
L 3597 3500 
L 2059 -325 
z
" transform="scale(0.015625)"/>
     </defs>
     <use xlink:href="#DejaVuSans-67"/>
     <use xlink:href="#DejaVuSans-65" x="63.476562"/>
     <use xlink:href="#DejaVuSans-74" x="125"/>
     <use xlink:href="#DejaVuSans-5f" x="164.208984"/>
     <use xlink:href="#DejaVuSans-73" x="214.208984"/>
     <use xlink:href="#DejaVuSans-75" x="266.308594"/>
     <use xlink:href="#DejaVuSans-62" x="329.6875"/>
     <use xlink:href="#DejaVuSans-73" x="393.164062"/>
     <use xlink:href="#DejaVuSans-63" x="445.263672"/>
     <use xlink:href="#DejaVuSans-72" x="500.244141"/>
     <use xlink:href="#DejaVuSans-69" x="541.357422"/>
     <use xlink:href="#DejaVuSans-62" x="569.140625"/>
     <use xlink:href="#DejaVuSans-65" x="632.617188"/>
     <use xlink:href="#DejaVuSans-20" x="694.140625"/>
     <use xlink:href="#DejaVuSans-68" x="725.927734"/>
     <use xlink:href="#DejaVuSans-69" x="789.306641"/>
     <use xlink:href="#DejaVuSans-73" x="817.089844"/>
     <use xlink:href="#DejaVuSans-74" x="869.189453"/>
     <use xlink:href="#DejaVuSans-6f" x="908.398438"/>
     <use xlink:href="#DejaVuSans-72" x="969.580078"/>
     <use xlink:href="#DejaVuSans-79" x="1010.693359"/>
    </g>
   </g>
   <g id="legend_1">
    <g id="line2d_35">
     <path d="M 815.08 328.498438 
L 825.08 328.498438 
L 835.08 328.498438 
" style="fill: none; stroke: #1f77b4; stroke-width: 1.5; stroke-linecap: square"/>
    </g>
    <g id="text_18">
     <!-- star -->
     <g style="fill: #a9a9a9" transform="translate(843.08 331.998438) scale(0.1 -0.1)">
      <defs>
       <path id="DejaVuSans-61" d="M 2194 1759 
Q 1497 1759 1228 1600 
Q 959 1441 959 1056 
Q 959 750 1161 570 
Q 1363 391 1709 391 
Q 2188 391 2477 730 
Q 2766 1069 2766 1631 
L 2766 1759 
L 2194 1759 
z
M 3341 1997 
L 3341 0 
L 2766 0 
L 2766 531 
Q 2569 213 2275 61 
Q 1981 -91 1556 -91 
Q 1019 -91 701 211 
Q 384 513 384 1019 
Q 384 1609 779 1909 
Q 1175 2209 1959 2209 
L 2766 2209 
L 2766 2266 
Q 2766 2663 2505 2880 
Q 2244 3097 1772 3097 
Q 1472 3097 1187 3025 
Q 903 2953 641 2809 
L 641 3341 
Q 956 3463 1253 3523 
Q 1550 3584 1831 3584 
Q 2591 3584 2966 3190 
Q 3341 2797 3341 1997 
z
" transform="scale(0.015625)"/>
      </defs>
      <use xlink:href="#DejaVuSans-73"/>
      <use xlink:href="#DejaVuSans-74" x="52.099609"/>
      <use xlink:href="#DejaVuSans-61" x="91.308594"/>
      <use xlink:href="#DejaVuSans-72" x="152.587891"/>
     </g>
    </g>
    <g id="line2d_36">
     <path d="M 815.08 343.176562 
L 825.08 343.176562 
L 835.08 343.176562 
" style="fill: none; stroke: #ff7f0e; stroke-width: 1.5; stroke-linecap: square"/>
    </g>
    <g id="text_19">
     <!-- fork -->
     <g style="fill: #a9a9a9" transform="translate(843.08 346.676562) scale(0.1 -0.1)">
      <defs>
       <path id="DejaVuSans-66" d="M 2375 4863 
L 2375 4384 
L 1825 4384 
Q 1516 4384 1395 4259 
Q 1275 4134 1275 3809 
L 1275 3500 
L 2222 3500 
L 2222 3053 
L 1275 3053 
L 1275 0 
L 697 0 
L 697 3053 
L 147 3053 
L 147 3500 
L 697 3500 
L 697 3744 
Q 697 4328 969 4595 
Q 1241 4863 1831 4863 
L 2375 4863 
z
" transform="scale(0.015625)"/>
       <path id="DejaVuSans-6b" d="M 581 4863 
L 1159 4863 
L 1159 1991 
L 2875 3500 
L 3609 3500 
L 1753 1863 
L 3688 0 
L 2938 0 
L 1159 1709 
L 1159 0 
L 581 0 
L 581 4863 
z
" transform="scale(0.015625)"/>
      </defs>
      <use xlink:href="#DejaVuSans-66"/>
      <use xlink:href="#DejaVuSans-6f" x="35.205078"/>
      <use xlink:href="#DejaVuSans-72" x="96.386719"/>
      <use xlink:href="#DejaVuSans-6b" x="137.5"/>
     </g>
    </g>
   </g>
  </g>
 </g>
 <defs>
  <clipPath id="p46e2a8c7eb">
   <rect x="108" y="43.2" width="669.6" height="277.2"/>
  </clipPath>
 </defs>
</svg>
