<?xml version="1.0" encoding="utf-8" standalone="no"?>
<!DOCTYPE svg PUBLIC "-//W3C//DTD SVG 1.1//EN"
  "http://www.w3.org/Graphics/SVG/1.1/DTD/svg11.dtd">
<svg xmlns:xlink="http://www.w3.org/1999/xlink" width="864pt" height="360pt" viewBox="0 0 864 360" xmlns="http://www.w3.org/2000/svg" version="1.1">
 <metadata>
  <rdf:RDF xmlns:dc="http://purl.org/dc/elements/1.1/" xmlns:cc="http://creativecommons.org/ns#" xmlns:rdf="http://www.w3.org/1999/02/22-rdf-syntax-ns#">
   <cc:Work>
    <dc:type rdf:resource="http://purl.org/dc/dcmitype/StillImage"/>
    <dc:date>2022-10-12T09:43:31.708135</dc:date>
    <dc:format>image/svg+xml</dc:format>
    <dc:creator>
     <cc:Agent>
      <dc:title>Matplotlib v3.6.1, https://matplotlib.org/</dc:title>
     </cc:Agent>
    </dc:creator>
   </cc:Work>
  </rdf:RDF>
 </metadata>
 <defs>
  <style type="text/css">*{stroke-linejoin: round; stroke-linecap: butt}</style>
 </defs>
 <g id="figure_1">
  <g id="patch_1">
   <path d="M 0 360 
L 864 360 
L 864 0 
L 0 0 
L 0 360 
z
" style="fill: none; opacity: 0"/>
  </g>
  <g id="axes_1">
   <g id="patch_2">
    <path d="M 108 320.4 
L 777.6 320.4 
L 777.6 43.2 
L 108 43.2 
L 108 320.4 
z
" style="fill: none; opacity: 0"/>
   </g>
   <g id="matplotlib.axis_1">
    <g id="xtick_1">
     <g id="line2d_1">
      <path d="M 191.785495 320.4 
L 191.785495 43.2 
" clip-path="url(#pbfd9f6ba0d)" style="fill: none; stroke-dasharray: 5.12,1.28,0.8,1.28; stroke-dashoffset: 0; stroke: #b0b0b0; stroke-width: 0.8"/>
     </g>
     <g id="line2d_2">
      <defs>
       <path id="m979ff32448" d="M 0 0 
L 0 3.5 
" style="stroke: #a9a9a9; stroke-width: 0.8"/>
      </defs>
      <g>
       <use xlink:href="#m979ff32448" x="191.785495" y="320.4" style="fill: #a9a9a9; stroke: #a9a9a9; stroke-width: 0.8"/>
      </g>
     </g>
     <g id="text_1">
      <!-- 2021-09 -->
      <g style="fill: #a9a9a9" transform="translate(170.894089 334.998438) scale(0.1 -0.1)">
       <defs>
        <path id="DejaVuSans-32" d="M 1228 531 
L 3431 531 
L 3431 0 
L 469 0 
L 469 531 
Q 828 903 1448 1529 
Q 2069 2156 2228 2338 
Q 2531 2678 2651 2914 
Q 2772 3150 2772 3378 
Q 2772 3750 2511 3984 
Q 2250 4219 1831 4219 
Q 1534 4219 1204 4116 
Q 875 4013 500 3803 
L 500 4441 
Q 881 4594 1212 4672 
Q 1544 4750 1819 4750 
Q 2544 4750 2975 4387 
Q 3406 4025 3406 3419 
Q 3406 3131 3298 2873 
Q 3191 2616 2906 2266 
Q 2828 2175 2409 1742 
Q 1991 1309 1228 531 
z
" transform="scale(0.015625)"/>
        <path id="DejaVuSans-30" d="M 2034 4250 
Q 1547 4250 1301 3770 
Q 1056 3291 1056 2328 
Q 1056 1369 1301 889 
Q 1547 409 2034 409 
Q 2525 409 2770 889 
Q 3016 1369 3016 2328 
Q 3016 3291 2770 3770 
Q 2525 4250 2034 4250 
z
M 2034 4750 
Q 2819 4750 3233 4129 
Q 3647 3509 3647 2328 
Q 3647 1150 3233 529 
Q 2819 -91 2034 -91 
Q 1250 -91 836 529 
Q 422 1150 422 2328 
Q 422 3509 836 4129 
Q 1250 4750 2034 4750 
z
" transform="scale(0.015625)"/>
        <path id="DejaVuSans-31" d="M 794 531 
L 1825 531 
L 1825 4091 
L 703 3866 
L 703 4441 
L 1819 4666 
L 2450 4666 
L 2450 531 
L 3481 531 
L 3481 0 
L 794 0 
L 794 531 
z
" transform="scale(0.015625)"/>
        <path id="DejaVuSans-2d" d="M 313 2009 
L 1997 2009 
L 1997 1497 
L 313 1497 
L 313 2009 
z
" transform="scale(0.015625)"/>
        <path id="DejaVuSans-39" d="M 703 97 
L 703 672 
Q 941 559 1184 500 
Q 1428 441 1663 441 
Q 2288 441 2617 861 
Q 2947 1281 2994 2138 
Q 2813 1869 2534 1725 
Q 2256 1581 1919 1581 
Q 1219 1581 811 2004 
Q 403 2428 403 3163 
Q 403 3881 828 4315 
Q 1253 4750 1959 4750 
Q 2769 4750 3195 4129 
Q 3622 3509 3622 2328 
Q 3622 1225 3098 567 
Q 2575 -91 1691 -91 
Q 1453 -91 1209 -44 
Q 966 3 703 97 
z
M 1959 2075 
Q 2384 2075 2632 2365 
Q 2881 2656 2881 3163 
Q 2881 3666 2632 3958 
Q 2384 4250 1959 4250 
Q 1534 4250 1286 3958 
Q 1038 3666 1038 3163 
Q 1038 2656 1286 2365 
Q 1534 2075 1959 2075 
z
" transform="scale(0.015625)"/>
       </defs>
       <use xlink:href="#DejaVuSans-32"/>
       <use xlink:href="#DejaVuSans-30" x="63.623047"/>
       <use xlink:href="#DejaVuSans-32" x="127.246094"/>
       <use xlink:href="#DejaVuSans-31" x="190.869141"/>
       <use xlink:href="#DejaVuSans-2d" x="254.492188"/>
       <use xlink:href="#DejaVuSans-30" x="290.576172"/>
       <use xlink:href="#DejaVuSans-39" x="354.199219"/>
      </g>
     </g>
    </g>
    <g id="xtick_2">
     <g id="line2d_3">
      <path d="M 275.229009 320.4 
L 275.229009 43.2 
" clip-path="url(#pbfd9f6ba0d)" style="fill: none; stroke-dasharray: 5.12,1.28,0.8,1.28; stroke-dashoffset: 0; stroke: #b0b0b0; stroke-width: 0.8"/>
     </g>
     <g id="line2d_4">
      <g>
       <use xlink:href="#m979ff32448" x="275.229009" y="320.4" style="fill: #a9a9a9; stroke: #a9a9a9; stroke-width: 0.8"/>
      </g>
     </g>
     <g id="text_2">
      <!-- 2021-11 -->
      <g style="fill: #a9a9a9" transform="translate(254.337603 334.998438) scale(0.1 -0.1)">
       <use xlink:href="#DejaVuSans-32"/>
       <use xlink:href="#DejaVuSans-30" x="63.623047"/>
       <use xlink:href="#DejaVuSans-32" x="127.246094"/>
       <use xlink:href="#DejaVuSans-31" x="190.869141"/>
       <use xlink:href="#DejaVuSans-2d" x="254.492188"/>
       <use xlink:href="#DejaVuSans-31" x="290.576172"/>
       <use xlink:href="#DejaVuSans-31" x="354.199219"/>
      </g>
     </g>
    </g>
    <g id="xtick_3">
     <g id="line2d_5">
      <path d="M 358.672523 320.4 
L 358.672523 43.2 
" clip-path="url(#pbfd9f6ba0d)" style="fill: none; stroke-dasharray: 5.12,1.28,0.8,1.28; stroke-dashoffset: 0; stroke: #b0b0b0; stroke-width: 0.8"/>
     </g>
     <g id="line2d_6">
      <g>
       <use xlink:href="#m979ff32448" x="358.672523" y="320.4" style="fill: #a9a9a9; stroke: #a9a9a9; stroke-width: 0.8"/>
      </g>
     </g>
     <g id="text_3">
      <!-- 2022-01 -->
      <g style="fill: #a9a9a9" transform="translate(337.781117 334.998438) scale(0.1 -0.1)">
       <use xlink:href="#DejaVuSans-32"/>
       <use xlink:href="#DejaVuSans-30" x="63.623047"/>
       <use xlink:href="#DejaVuSans-32" x="127.246094"/>
       <use xlink:href="#DejaVuSans-32" x="190.869141"/>
       <use xlink:href="#DejaVuSans-2d" x="254.492188"/>
       <use xlink:href="#DejaVuSans-30" x="290.576172"/>
       <use xlink:href="#DejaVuSans-31" x="354.199219"/>
      </g>
     </g>
    </g>
    <g id="xtick_4">
     <g id="line2d_7">
      <path d="M 439.380184 320.4 
L 439.380184 43.2 
" clip-path="url(#pbfd9f6ba0d)" style="fill: none; stroke-dasharray: 5.12,1.28,0.8,1.28; stroke-dashoffset: 0; stroke: #b0b0b0; stroke-width: 0.8"/>
     </g>
     <g id="line2d_8">
      <g>
       <use xlink:href="#m979ff32448" x="439.380184" y="320.4" style="fill: #a9a9a9; stroke: #a9a9a9; stroke-width: 0.8"/>
      </g>
     </g>
     <g id="text_4">
      <!-- 2022-03 -->
      <g style="fill: #a9a9a9" transform="translate(418.488778 334.998438) scale(0.1 -0.1)">
       <defs>
        <path id="DejaVuSans-33" d="M 2597 2516 
Q 3050 2419 3304 2112 
Q 3559 1806 3559 1356 
Q 3559 666 3084 287 
Q 2609 -91 1734 -91 
Q 1441 -91 1130 -33 
Q 819 25 488 141 
L 488 750 
Q 750 597 1062 519 
Q 1375 441 1716 441 
Q 2309 441 2620 675 
Q 2931 909 2931 1356 
Q 2931 1769 2642 2001 
Q 2353 2234 1838 2234 
L 1294 2234 
L 1294 2753 
L 1863 2753 
Q 2328 2753 2575 2939 
Q 2822 3125 2822 3475 
Q 2822 3834 2567 4026 
Q 2313 4219 1838 4219 
Q 1578 4219 1281 4162 
Q 984 4106 628 3988 
L 628 4550 
Q 988 4650 1302 4700 
Q 1616 4750 1894 4750 
Q 2613 4750 3031 4423 
Q 3450 4097 3450 3541 
Q 3450 3153 3228 2886 
Q 3006 2619 2597 2516 
z
" transform="scale(0.015625)"/>
       </defs>
       <use xlink:href="#DejaVuSans-32"/>
       <use xlink:href="#DejaVuSans-30" x="63.623047"/>
       <use xlink:href="#DejaVuSans-32" x="127.246094"/>
       <use xlink:href="#DejaVuSans-32" x="190.869141"/>
       <use xlink:href="#DejaVuSans-2d" x="254.492188"/>
       <use xlink:href="#DejaVuSans-30" x="290.576172"/>
       <use xlink:href="#DejaVuSans-33" x="354.199219"/>
      </g>
     </g>
    </g>
    <g id="xtick_5">
     <g id="line2d_9">
      <path d="M 522.823698 320.4 
L 522.823698 43.2 
" clip-path="url(#pbfd9f6ba0d)" style="fill: none; stroke-dasharray: 5.12,1.28,0.8,1.28; stroke-dashoffset: 0; stroke: #b0b0b0; stroke-width: 0.8"/>
     </g>
     <g id="line2d_10">
      <g>
       <use xlink:href="#m979ff32448" x="522.823698" y="320.4" style="fill: #a9a9a9; stroke: #a9a9a9; stroke-width: 0.8"/>
      </g>
     </g>
     <g id="text_5">
      <!-- 2022-05 -->
      <g style="fill: #a9a9a9" transform="translate(501.932291 334.998438) scale(0.1 -0.1)">
       <defs>
        <path id="DejaVuSans-35" d="M 691 4666 
L 3169 4666 
L 3169 4134 
L 1269 4134 
L 1269 2991 
Q 1406 3038 1543 3061 
Q 1681 3084 1819 3084 
Q 2600 3084 3056 2656 
Q 3513 2228 3513 1497 
Q 3513 744 3044 326 
Q 2575 -91 1722 -91 
Q 1428 -91 1123 -41 
Q 819 9 494 109 
L 494 744 
Q 775 591 1075 516 
Q 1375 441 1709 441 
Q 2250 441 2565 725 
Q 2881 1009 2881 1497 
Q 2881 1984 2565 2268 
Q 2250 2553 1709 2553 
Q 1456 2553 1204 2497 
Q 953 2441 691 2322 
L 691 4666 
z
" transform="scale(0.015625)"/>
       </defs>
       <use xlink:href="#DejaVuSans-32"/>
       <use xlink:href="#DejaVuSans-30" x="63.623047"/>
       <use xlink:href="#DejaVuSans-32" x="127.246094"/>
       <use xlink:href="#DejaVuSans-32" x="190.869141"/>
       <use xlink:href="#DejaVuSans-2d" x="254.492188"/>
       <use xlink:href="#DejaVuSans-30" x="290.576172"/>
       <use xlink:href="#DejaVuSans-35" x="354.199219"/>
      </g>
     </g>
    </g>
    <g id="xtick_6">
     <g id="line2d_11">
      <path d="M 606.267211 320.4 
L 606.267211 43.2 
" clip-path="url(#pbfd9f6ba0d)" style="fill: none; stroke-dasharray: 5.12,1.28,0.8,1.28; stroke-dashoffset: 0; stroke: #b0b0b0; stroke-width: 0.8"/>
     </g>
     <g id="line2d_12">
      <g>
       <use xlink:href="#m979ff32448" x="606.267211" y="320.4" style="fill: #a9a9a9; stroke: #a9a9a9; stroke-width: 0.8"/>
      </g>
     </g>
     <g id="text_6">
      <!-- 2022-07 -->
      <g style="fill: #a9a9a9" transform="translate(585.375805 334.998438) scale(0.1 -0.1)">
       <defs>
        <path id="DejaVuSans-37" d="M 525 4666 
L 3525 4666 
L 3525 4397 
L 1831 0 
L 1172 0 
L 2766 4134 
L 525 4134 
L 525 4666 
z
" transform="scale(0.015625)"/>
       </defs>
       <use xlink:href="#DejaVuSans-32"/>
       <use xlink:href="#DejaVuSans-30" x="63.623047"/>
       <use xlink:href="#DejaVuSans-32" x="127.246094"/>
       <use xlink:href="#DejaVuSans-32" x="190.869141"/>
       <use xlink:href="#DejaVuSans-2d" x="254.492188"/>
       <use xlink:href="#DejaVuSans-30" x="290.576172"/>
       <use xlink:href="#DejaVuSans-37" x="354.199219"/>
      </g>
     </g>
    </g>
    <g id="xtick_7">
     <g id="line2d_13">
      <path d="M 691.078652 320.4 
L 691.078652 43.2 
" clip-path="url(#pbfd9f6ba0d)" style="fill: none; stroke-dasharray: 5.12,1.28,0.8,1.28; stroke-dashoffset: 0; stroke: #b0b0b0; stroke-width: 0.8"/>
     </g>
     <g id="line2d_14">
      <g>
       <use xlink:href="#m979ff32448" x="691.078652" y="320.4" style="fill: #a9a9a9; stroke: #a9a9a9; stroke-width: 0.8"/>
      </g>
     </g>
     <g id="text_7">
      <!-- 2022-09 -->
      <g style="fill: #a9a9a9" transform="translate(670.187245 334.998438) scale(0.1 -0.1)">
       <use xlink:href="#DejaVuSans-32"/>
       <use xlink:href="#DejaVuSans-30" x="63.623047"/>
       <use xlink:href="#DejaVuSans-32" x="127.246094"/>
       <use xlink:href="#DejaVuSans-32" x="190.869141"/>
       <use xlink:href="#DejaVuSans-2d" x="254.492188"/>
       <use xlink:href="#DejaVuSans-30" x="290.576172"/>
       <use xlink:href="#DejaVuSans-39" x="354.199219"/>
      </g>
     </g>
    </g>
    <g id="xtick_8">
     <g id="line2d_15">
      <path d="M 774.522165 320.4 
L 774.522165 43.2 
" clip-path="url(#pbfd9f6ba0d)" style="fill: none; stroke-dasharray: 5.12,1.28,0.8,1.28; stroke-dashoffset: 0; stroke: #b0b0b0; stroke-width: 0.8"/>
     </g>
     <g id="line2d_16">
      <g>
       <use xlink:href="#m979ff32448" x="774.522165" y="320.4" style="fill: #a9a9a9; stroke: #a9a9a9; stroke-width: 0.8"/>
      </g>
     </g>
     <g id="text_8">
      <!-- 2022-11 -->
      <g style="fill: #a9a9a9" transform="translate(753.630759 334.998438) scale(0.1 -0.1)">
       <use xlink:href="#DejaVuSans-32"/>
       <use xlink:href="#DejaVuSans-30" x="63.623047"/>
       <use xlink:href="#DejaVuSans-32" x="127.246094"/>
       <use xlink:href="#DejaVuSans-32" x="190.869141"/>
       <use xlink:href="#DejaVuSans-2d" x="254.492188"/>
       <use xlink:href="#DejaVuSans-31" x="290.576172"/>
       <use xlink:href="#DejaVuSans-31" x="354.199219"/>
      </g>
     </g>
    </g>
   </g>
   <g id="matplotlib.axis_2">
    <g id="ytick_1">
     <g id="line2d_17">
      <path d="M 108 307.889776 
L 777.6 307.889776 
" clip-path="url(#pbfd9f6ba0d)" style="fill: none; stroke-dasharray: 5.12,1.28,0.8,1.28; stroke-dashoffset: 0; stroke: #b0b0b0; stroke-width: 0.8"/>
     </g>
     <g id="line2d_18">
      <defs>
       <path id="m381bd8152c" d="M 0 0 
L -3.5 0 
" style="stroke: #a9a9a9; stroke-width: 0.8"/>
      </defs>
      <g>
       <use xlink:href="#m381bd8152c" x="108" y="307.889776" style="fill: #a9a9a9; stroke: #a9a9a9; stroke-width: 0.8"/>
      </g>
     </g>
     <g id="text_9">
      <!-- 0 -->
      <g style="fill: #a9a9a9" transform="translate(94.6375 311.688994) scale(0.1 -0.1)">
       <use xlink:href="#DejaVuSans-30"/>
      </g>
     </g>
    </g>
    <g id="ytick_2">
     <g id="line2d_19">
      <path d="M 108 271.979551 
L 777.6 271.979551 
" clip-path="url(#pbfd9f6ba0d)" style="fill: none; stroke-dasharray: 5.12,1.28,0.8,1.28; stroke-dashoffset: 0; stroke: #b0b0b0; stroke-width: 0.8"/>
     </g>
     <g id="line2d_20">
      <g>
       <use xlink:href="#m381bd8152c" x="108" y="271.979551" style="fill: #a9a9a9; stroke: #a9a9a9; stroke-width: 0.8"/>
      </g>
     </g>
     <g id="text_10">
      <!-- 400 -->
      <g style="fill: #a9a9a9" transform="translate(81.9125 275.77877) scale(0.1 -0.1)">
       <defs>
        <path id="DejaVuSans-34" d="M 2419 4116 
L 825 1625 
L 2419 1625 
L 2419 4116 
z
M 2253 4666 
L 3047 4666 
L 3047 1625 
L 3713 1625 
L 3713 1100 
L 3047 1100 
L 3047 0 
L 2419 0 
L 2419 1100 
L 313 1100 
L 313 1709 
L 2253 4666 
z
" transform="scale(0.015625)"/>
       </defs>
       <use xlink:href="#DejaVuSans-34"/>
       <use xlink:href="#DejaVuSans-30" x="63.623047"/>
       <use xlink:href="#DejaVuSans-30" x="127.246094"/>
      </g>
     </g>
    </g>
    <g id="ytick_3">
     <g id="line2d_21">
      <path d="M 108 236.069327 
L 777.6 236.069327 
" clip-path="url(#pbfd9f6ba0d)" style="fill: none; stroke-dasharray: 5.12,1.28,0.8,1.28; stroke-dashoffset: 0; stroke: #b0b0b0; stroke-width: 0.8"/>
     </g>
     <g id="line2d_22">
      <g>
       <use xlink:href="#m381bd8152c" x="108" y="236.069327" style="fill: #a9a9a9; stroke: #a9a9a9; stroke-width: 0.8"/>
      </g>
     </g>
     <g id="text_11">
      <!-- 800 -->
      <g style="fill: #a9a9a9" transform="translate(81.9125 239.868545) scale(0.1 -0.1)">
       <defs>
        <path id="DejaVuSans-38" d="M 2034 2216 
Q 1584 2216 1326 1975 
Q 1069 1734 1069 1313 
Q 1069 891 1326 650 
Q 1584 409 2034 409 
Q 2484 409 2743 651 
Q 3003 894 3003 1313 
Q 3003 1734 2745 1975 
Q 2488 2216 2034 2216 
z
M 1403 2484 
Q 997 2584 770 2862 
Q 544 3141 544 3541 
Q 544 4100 942 4425 
Q 1341 4750 2034 4750 
Q 2731 4750 3128 4425 
Q 3525 4100 3525 3541 
Q 3525 3141 3298 2862 
Q 3072 2584 2669 2484 
Q 3125 2378 3379 2068 
Q 3634 1759 3634 1313 
Q 3634 634 3220 271 
Q 2806 -91 2034 -91 
Q 1263 -91 848 271 
Q 434 634 434 1313 
Q 434 1759 690 2068 
Q 947 2378 1403 2484 
z
M 1172 3481 
Q 1172 3119 1398 2916 
Q 1625 2713 2034 2713 
Q 2441 2713 2670 2916 
Q 2900 3119 2900 3481 
Q 2900 3844 2670 4047 
Q 2441 4250 2034 4250 
Q 1625 4250 1398 4047 
Q 1172 3844 1172 3481 
z
" transform="scale(0.015625)"/>
       </defs>
       <use xlink:href="#DejaVuSans-38"/>
       <use xlink:href="#DejaVuSans-30" x="63.623047"/>
       <use xlink:href="#DejaVuSans-30" x="127.246094"/>
      </g>
     </g>
    </g>
    <g id="ytick_4">
     <g id="line2d_23">
      <path d="M 108 200.159102 
L 777.6 200.159102 
" clip-path="url(#pbfd9f6ba0d)" style="fill: none; stroke-dasharray: 5.12,1.28,0.8,1.28; stroke-dashoffset: 0; stroke: #b0b0b0; stroke-width: 0.8"/>
     </g>
     <g id="line2d_24">
      <g>
       <use xlink:href="#m381bd8152c" x="108" y="200.159102" style="fill: #a9a9a9; stroke: #a9a9a9; stroke-width: 0.8"/>
      </g>
     </g>
     <g id="text_12">
      <!-- 1200 -->
      <g style="fill: #a9a9a9" transform="translate(75.55 203.958321) scale(0.1 -0.1)">
       <use xlink:href="#DejaVuSans-31"/>
       <use xlink:href="#DejaVuSans-32" x="63.623047"/>
       <use xlink:href="#DejaVuSans-30" x="127.246094"/>
       <use xlink:href="#DejaVuSans-30" x="190.869141"/>
      </g>
     </g>
    </g>
    <g id="ytick_5">
     <g id="line2d_25">
      <path d="M 108 164.248878 
L 777.6 164.248878 
" clip-path="url(#pbfd9f6ba0d)" style="fill: none; stroke-dasharray: 5.12,1.28,0.8,1.28; stroke-dashoffset: 0; stroke: #b0b0b0; stroke-width: 0.8"/>
     </g>
     <g id="line2d_26">
      <g>
       <use xlink:href="#m381bd8152c" x="108" y="164.248878" style="fill: #a9a9a9; stroke: #a9a9a9; stroke-width: 0.8"/>
      </g>
     </g>
     <g id="text_13">
      <!-- 1600 -->
      <g style="fill: #a9a9a9" transform="translate(75.55 168.048097) scale(0.1 -0.1)">
       <defs>
        <path id="DejaVuSans-36" d="M 2113 2584 
Q 1688 2584 1439 2293 
Q 1191 2003 1191 1497 
Q 1191 994 1439 701 
Q 1688 409 2113 409 
Q 2538 409 2786 701 
Q 3034 994 3034 1497 
Q 3034 2003 2786 2293 
Q 2538 2584 2113 2584 
z
M 3366 4563 
L 3366 3988 
Q 3128 4100 2886 4159 
Q 2644 4219 2406 4219 
Q 1781 4219 1451 3797 
Q 1122 3375 1075 2522 
Q 1259 2794 1537 2939 
Q 1816 3084 2150 3084 
Q 2853 3084 3261 2657 
Q 3669 2231 3669 1497 
Q 3669 778 3244 343 
Q 2819 -91 2113 -91 
Q 1303 -91 875 529 
Q 447 1150 447 2328 
Q 447 3434 972 4092 
Q 1497 4750 2381 4750 
Q 2619 4750 2861 4703 
Q 3103 4656 3366 4563 
z
" transform="scale(0.015625)"/>
       </defs>
       <use xlink:href="#DejaVuSans-31"/>
       <use xlink:href="#DejaVuSans-36" x="63.623047"/>
       <use xlink:href="#DejaVuSans-30" x="127.246094"/>
       <use xlink:href="#DejaVuSans-30" x="190.869141"/>
      </g>
     </g>
    </g>
    <g id="ytick_6">
     <g id="line2d_27">
      <path d="M 108 128.338653 
L 777.6 128.338653 
" clip-path="url(#pbfd9f6ba0d)" style="fill: none; stroke-dasharray: 5.12,1.28,0.8,1.28; stroke-dashoffset: 0; stroke: #b0b0b0; stroke-width: 0.8"/>
     </g>
     <g id="line2d_28">
      <g>
       <use xlink:href="#m381bd8152c" x="108" y="128.338653" style="fill: #a9a9a9; stroke: #a9a9a9; stroke-width: 0.8"/>
      </g>
     </g>
     <g id="text_14">
      <!-- 2000 -->
      <g style="fill: #a9a9a9" transform="translate(75.55 132.137872) scale(0.1 -0.1)">
       <use xlink:href="#DejaVuSans-32"/>
       <use xlink:href="#DejaVuSans-30" x="63.623047"/>
       <use xlink:href="#DejaVuSans-30" x="127.246094"/>
       <use xlink:href="#DejaVuSans-30" x="190.869141"/>
      </g>
     </g>
    </g>
    <g id="ytick_7">
     <g id="line2d_29">
      <path d="M 108 92.428429 
L 777.6 92.428429 
" clip-path="url(#pbfd9f6ba0d)" style="fill: none; stroke-dasharray: 5.12,1.28,0.8,1.28; stroke-dashoffset: 0; stroke: #b0b0b0; stroke-width: 0.8"/>
     </g>
     <g id="line2d_30">
      <g>
       <use xlink:href="#m381bd8152c" x="108" y="92.428429" style="fill: #a9a9a9; stroke: #a9a9a9; stroke-width: 0.8"/>
      </g>
     </g>
     <g id="text_15">
      <!-- 2400 -->
      <g style="fill: #a9a9a9" transform="translate(75.55 96.227648) scale(0.1 -0.1)">
       <use xlink:href="#DejaVuSans-32"/>
       <use xlink:href="#DejaVuSans-34" x="63.623047"/>
       <use xlink:href="#DejaVuSans-30" x="127.246094"/>
       <use xlink:href="#DejaVuSans-30" x="190.869141"/>
      </g>
     </g>
    </g>
    <g id="ytick_8">
     <g id="line2d_31">
      <path d="M 108 56.518204 
L 777.6 56.518204 
" clip-path="url(#pbfd9f6ba0d)" style="fill: none; stroke-dasharray: 5.12,1.28,0.8,1.28; stroke-dashoffset: 0; stroke: #b0b0b0; stroke-width: 0.8"/>
     </g>
     <g id="line2d_32">
      <g>
       <use xlink:href="#m381bd8152c" x="108" y="56.518204" style="fill: #a9a9a9; stroke: #a9a9a9; stroke-width: 0.8"/>
      </g>
     </g>
     <g id="text_16">
      <!-- 2800 -->
      <g style="fill: #a9a9a9" transform="translate(75.55 60.317423) scale(0.1 -0.1)">
       <use xlink:href="#DejaVuSans-32"/>
       <use xlink:href="#DejaVuSans-38" x="63.623047"/>
       <use xlink:href="#DejaVuSans-30" x="127.246094"/>
       <use xlink:href="#DejaVuSans-30" x="190.869141"/>
      </g>
     </g>
    </g>
   </g>
   <g id="line2d_33">
    <path d="M 138.436364 307.530673 
L 143.908069 307.081796 
L 145.275996 306.902244 
L 146.643922 306.902244 
L 148.011849 306.363591 
L 150.747702 306.18404 
L 160.323187 304.298753 
L 163.05904 304.029426 
L 164.426966 303.7601 
L 168.530746 303.490773 
L 169.898672 302.772569 
L 171.266599 302.413466 
L 172.634525 300.797506 
L 174.002451 299.899751 
L 175.370378 296.757606 
L 176.738304 296.578055 
L 178.106231 295.500748 
L 179.474157 294.962095 
L 180.842084 294.154115 
L 184.945863 290.832419 
L 186.31379 290.114214 
L 189.049642 288.947132 
L 190.417569 287.959601 
L 191.785495 287.420948 
L 194.521348 285.715212 
L 195.889275 285.266334 
L 197.257201 283.021945 
L 198.625128 281.944638 
L 199.993054 281.136658 
L 201.360981 280.508229 
L 206.832686 279.700249 
L 210.936466 278.982045 
L 213.672319 278.802494 
L 215.040245 278.533167 
L 216.408172 277.814963 
L 221.879877 277.366085 
L 225.983657 276.917207 
L 227.351583 276.468329 
L 234.191216 275.121696 
L 236.927068 274.852369 
L 238.294995 274.493267 
L 242.398774 273.954613 
L 243.766701 273.236409 
L 245.134627 273.056858 
L 247.87048 272.069327 
L 250.606333 271.8 
L 251.974259 271.351122 
L 257.445965 270.543142 
L 258.813892 270.094264 
L 261.549745 269.645387 
L 262.917671 269.645387 
L 269.757303 268.747631 
L 272.493156 267.939651 
L 273.861083 267.580549 
L 276.596936 267.311222 
L 277.964862 267.221446 
L 282.068641 266.413466 
L 283.436568 265.874813 
L 284.804494 264.079302 
L 286.172421 263.540648 
L 287.540347 262.822444 
L 288.908274 262.642893 
L 290.2762 262.283791 
L 291.644127 262.104239 
L 294.37998 260.937157 
L 295.747906 260.847382 
L 302.587538 258.962095 
L 303.955465 258.962095 
L 306.691318 258.602993 
L 309.427171 257.795012 
L 313.53095 256.717706 
L 314.898876 256.62793 
L 317.634729 255.460848 
L 319.002656 255.281297 
L 320.370582 254.652868 
L 323.106435 254.383541 
L 324.474362 254.293766 
L 328.578141 253.575561 
L 331.313994 253.126683 
L 335.417773 252.318703 
L 336.7857 251.869825 
L 338.153626 251.690274 
L 340.889479 250.702743 
L 342.257406 249.894763 
L 343.625332 249.535661 
L 344.993258 249.35611 
L 347.729111 248.458354 
L 350.464964 246.93217 
L 351.832891 246.034414 
L 353.200817 245.854863 
L 354.568744 245.405985 
L 355.93667 245.226434 
L 357.304597 244.867332 
L 358.672523 244.687781 
L 360.040449 244.059352 
L 362.776302 243.520698 
L 364.144229 242.802494 
L 365.512155 242.26384 
L 366.880082 241.904738 
L 368.248008 241.725187 
L 369.615935 241.186534 
L 375.08764 240.109227 
L 377.823493 238.942145 
L 379.19142 238.672818 
L 380.559346 238.134165 
L 381.927273 237.954613 
L 383.295199 237.326185 
L 384.663126 236.967082 
L 387.398979 236.787531 
L 390.134831 235.8 
L 391.502758 235.620449 
L 392.870684 235.620449 
L 394.238611 234.99202 
L 396.974464 234.543142 
L 398.34239 234.004489 
L 401.078243 233.914713 
L 406.549949 233.196509 
L 409.285802 231.849875 
L 412.021655 230.593017 
L 413.389581 230.233915 
L 414.757508 229.33616 
L 416.125434 228.887282 
L 418.861287 227.630424 
L 420.229213 227.361097 
L 421.59714 226.732668 
L 422.965066 226.283791 
L 424.332993 225.386035 
L 425.700919 224.66783 
L 427.068846 223.231421 
L 428.436772 220.987032 
L 429.804699 219.101746 
L 431.172625 218.652868 
L 432.540552 218.563092 
L 433.908478 217.665337 
L 435.276404 216.58803 
L 436.644331 216.228928 
L 438.012257 215.510723 
L 439.380184 215.241397 
L 440.74811 213.984539 
L 442.116037 213.625436 
L 446.219816 211.74015 
L 447.587743 210.12419 
L 448.955669 207.8798 
L 450.323596 207.07182 
L 451.691522 204.827431 
L 453.059448 203.480798 
L 454.427375 202.762594 
L 455.795301 202.403491 
L 457.163228 201.41596 
L 459.899081 200.069327 
L 461.267007 199.081796 
L 462.634934 197.914713 
L 464.00286 196.927182 
L 465.370787 196.119202 
L 466.738713 194.14414 
L 468.106639 191.001995 
L 469.474566 188.937157 
L 470.842492 187.85985 
L 472.210419 187.231421 
L 476.314198 183.550623 
L 480.417978 180.228928 
L 481.785904 179.061845 
L 483.15383 177.086783 
L 484.521757 175.74015 
L 485.889683 174.662843 
L 488.625536 172.777556 
L 491.361389 170.802494 
L 492.729316 169.635411 
L 494.097242 169.276309 
L 495.465169 168.64788 
L 499.568948 166.313716 
L 502.304801 164.967082 
L 505.040654 162.543142 
L 506.40858 160.837406 
L 507.776507 159.849875 
L 509.144433 159.041895 
L 510.51236 158.682793 
L 511.880286 157.964589 
L 513.248212 156.977057 
L 515.984065 155.540648 
L 517.351992 155.271322 
L 518.719918 154.373566 
L 520.087845 153.655362 
L 521.455771 152.757606 
L 522.823698 151.410973 
L 524.191624 150.423441 
L 525.559551 149.974564 
L 526.927477 148.987032 
L 528.295403 148.358603 
L 529.66333 147.460848 
L 531.031256 146.832419 
L 532.399183 145.934663 
L 533.767109 144.767581 
L 536.502962 143.78005 
L 537.870889 143.151621 
L 539.238815 142.882294 
L 540.606742 141.984539 
L 541.974668 141.715212 
L 550.182227 138.483292 
L 551.550153 138.12419 
L 552.91808 137.585536 
L 555.653933 137.046883 
L 557.021859 135.700249 
L 558.389785 134.622943 
L 559.757712 134.084289 
L 565.229418 130.942145 
L 566.597344 130.403491 
L 567.965271 130.044389 
L 569.333197 128.967082 
L 570.701124 128.518204 
L 573.436977 126.722693 
L 574.804903 126.004489 
L 578.908682 125.106733 
L 581.644535 124.298753 
L 585.748315 121.964589 
L 587.116241 121.785037 
L 588.484168 121.246384 
L 589.852094 121.066833 
L 591.22002 120.52818 
L 592.587947 119.630424 
L 593.955873 118.553117 
L 595.3238 117.655362 
L 596.691726 117.386035 
L 598.059653 116.66783 
L 599.427579 116.398504 
L 600.795506 115.85985 
L 602.163432 114.872319 
L 603.531359 114.423441 
L 604.899285 113.795012 
L 610.370991 112.268828 
L 611.738917 112.179052 
L 613.106844 111.730175 
L 615.842697 110.473317 
L 617.210623 110.024439 
L 618.57855 109.755112 
L 622.682329 107.78005 
L 625.418182 106.97207 
L 626.786108 106.882294 
L 629.521961 106.253865 
L 630.889888 105.535661 
L 632.257814 105.176559 
L 634.993667 104.009476 
L 639.097446 102.034414 
L 641.833299 100.238903 
L 643.201226 99.790025 
L 644.569152 98.982045 
L 645.937079 98.443392 
L 647.305005 97.635411 
L 650.040858 96.917207 
L 651.408784 96.109227 
L 654.144637 94.942145 
L 656.88049 94.403491 
L 658.248417 93.41596 
L 659.616343 92.697756 
L 660.98427 92.428429 
L 662.352196 91.889776 
L 663.720123 91.171571 
L 665.088049 90.902244 
L 666.455975 90.18404 
L 671.927681 89.37606 
L 674.663534 88.119202 
L 676.031461 87.041895 
L 677.399387 84.52818 
L 678.767314 84.169077 
L 680.13524 83.989526 
L 681.503166 83.630424 
L 684.239019 82.104239 
L 685.606946 81.565586 
L 686.974872 80.847382 
L 688.342799 80.488279 
L 691.078652 79.141646 
L 693.814505 77.795012 
L 696.550358 76.62793 
L 697.918284 75.730175 
L 699.28621 75.191521 
L 703.38999 74.114214 
L 706.125843 72.767581 
L 707.493769 72.139152 
L 708.861696 71.869825 
L 712.965475 70.16409 
L 715.701328 68.458354 
L 717.069254 67.381047 
L 718.437181 66.662843 
L 719.805107 66.393516 
L 721.173034 65.765087 
L 722.54096 65.675312 
L 728.012666 63.790025 
L 729.380592 63.700249 
L 730.748519 62.712718 
L 732.116445 62.26384 
L 733.484372 61.635411 
L 737.588151 60.199002 
L 738.956078 59.391022 
L 740.324004 58.942145 
L 741.691931 58.044389 
L 743.059857 57.326185 
L 744.427783 56.338653 
L 745.79571 55.8 
L 747.163636 55.8 
L 747.163636 55.8 
" clip-path="url(#pbfd9f6ba0d)" style="fill: none; stroke: #1f77b4; stroke-width: 1.5; stroke-linecap: square"/>
   </g>
   <g id="line2d_34">
    <path d="M 139.80429 307.8 
L 142.540143 307.8 
L 145.275996 307.440898 
L 153.483555 307.351122 
L 157.587334 307.171571 
L 161.691113 307.081796 
L 164.426966 306.99202 
L 168.530746 306.99202 
L 169.898672 306.632918 
L 174.002451 306.543142 
L 180.842084 305.735162 
L 191.785495 305.106733 
L 193.153422 305.106733 
L 194.521348 304.837406 
L 198.625128 304.747631 
L 201.360981 304.388529 
L 206.832686 304.388529 
L 208.200613 304.208978 
L 215.040245 304.119202 
L 219.144025 303.939651 
L 231.455363 303.849875 
L 234.191216 303.7601 
L 239.662921 303.670324 
L 243.766701 303.490773 
L 249.238407 303.490773 
L 250.606333 303.311222 
L 254.710112 303.221446 
L 260.181818 302.95212 
L 269.757303 302.862344 
L 272.493156 302.772569 
L 277.964862 302.682793 
L 282.068641 302.14414 
L 288.908274 302.054364 
L 295.747906 301.695262 
L 302.587538 301.605486 
L 306.691318 301.425935 
L 309.427171 301.33616 
L 313.53095 300.887282 
L 317.634729 300.707731 
L 321.738509 300.617955 
L 324.474362 300.52818 
L 327.210215 300.52818 
L 328.578141 300.348628 
L 332.68192 300.348628 
L 336.7857 299.899751 
L 340.889479 299.809975 
L 343.625332 299.7202 
L 346.361185 299.7202 
L 351.832891 299.091771 
L 353.200817 299.001995 
L 354.568744 298.732668 
L 360.040449 298.642893 
L 364.144229 298.283791 
L 366.880082 298.014464 
L 373.719714 297.655362 
L 377.823493 297.565586 
L 381.927273 297.386035 
L 383.295199 297.386035 
L 386.031052 297.116708 
L 388.766905 297.026933 
L 390.134831 297.026933 
L 391.502758 296.847382 
L 394.238611 296.757606 
L 401.078243 296.398504 
L 403.814096 296.308728 
L 407.917875 296.129177 
L 412.021655 296.039401 
L 414.757508 295.949626 
L 421.59714 295.85985 
L 427.068846 295.231421 
L 428.436772 295.231421 
L 431.172625 294.962095 
L 433.908478 294.872319 
L 439.380184 294.423441 
L 440.74811 294.24389 
L 442.116037 293.884788 
L 444.85189 293.705237 
L 446.219816 293.346135 
L 450.323596 292.987032 
L 453.059448 292.358603 
L 457.163228 292.179052 
L 458.531154 292.179052 
L 459.899081 291.999501 
L 461.267007 291.999501 
L 464.00286 291.550623 
L 469.474566 290.563092 
L 470.842492 290.563092 
L 472.210419 290.383541 
L 476.314198 290.293766 
L 494.097242 289.126683 
L 495.465169 288.857357 
L 499.568948 288.58803 
L 502.304801 288.139152 
L 505.040654 287.869825 
L 507.776507 287.78005 
L 510.51236 287.78005 
L 511.880286 287.420948 
L 513.248212 287.241397 
L 515.984065 287.151621 
L 525.559551 286.433416 
L 529.66333 285.625436 
L 532.399183 285.535661 
L 539.238815 285.176559 
L 543.342594 285.086783 
L 561.125638 284.009476 
L 563.861491 284.009476 
L 566.597344 283.74015 
L 569.333197 283.74015 
L 573.436977 283.291272 
L 578.908682 283.021945 
L 581.644535 282.93217 
L 583.012462 282.752618 
L 588.484168 282.662843 
L 598.059653 282.12419 
L 604.899285 282.034414 
L 607.635138 281.944638 
L 609.003064 281.944638 
L 610.370991 281.675312 
L 613.106844 281.585536 
L 621.314402 281.495761 
L 626.786108 281.226434 
L 630.889888 281.136658 
L 632.257814 280.867332 
L 637.72952 280.777556 
L 641.833299 280.598005 
L 645.937079 280.508229 
L 648.672932 280.418454 
L 651.408784 280.328678 
L 662.352196 279.700249 
L 669.191828 279.610474 
L 673.295608 279.251372 
L 676.031461 278.982045 
L 678.767314 278.892269 
L 681.503166 278.802494 
L 682.871093 278.622943 
L 686.974872 278.533167 
L 688.342799 278.174065 
L 693.814505 277.904738 
L 706.125843 277.814963 
L 710.229622 277.45586 
L 715.701328 276.827431 
L 718.437181 276.737656 
L 723.908887 276.64788 
L 729.380592 276.019451 
L 736.220225 275.660349 
L 738.956078 275.570574 
L 744.427783 275.301247 
L 747.163636 275.301247 
L 747.163636 275.301247 
" clip-path="url(#pbfd9f6ba0d)" style="fill: none; stroke: #ff7f0e; stroke-width: 1.5; stroke-linecap: square"/>
   </g>
   <g id="patch_3">
    <path d="M 108 320.4 
L 108 43.2 
" style="fill: none; stroke: #a9a9a9; stroke-width: 0.8; stroke-linejoin: miter; stroke-linecap: square"/>
   </g>
   <g id="patch_4">
    <path d="M 777.6 320.4 
L 777.6 43.2 
" style="fill: none"/>
   </g>
   <g id="patch_5">
    <path d="M 108 320.4 
L 777.6 320.4 
" style="fill: none; stroke: #a9a9a9; stroke-width: 0.8; stroke-linejoin: miter; stroke-linecap: square"/>
   </g>
   <g id="patch_6">
    <path d="M 108 43.2 
L 777.6 43.2 
" style="fill: none"/>
   </g>
   <g id="text_17">
    <!-- get_subscribe history -->
    <g style="fill: #a9a9a9" transform="translate(378.6075 37.2) scale(0.12 -0.12)">
     <defs>
      <path id="DejaVuSans-67" d="M 2906 1791 
Q 2906 2416 2648 2759 
Q 2391 3103 1925 3103 
Q 1463 3103 1205 2759 
Q 947 2416 947 1791 
Q 947 1169 1205 825 
Q 1463 481 1925 481 
Q 2391 481 2648 825 
Q 2906 1169 2906 1791 
z
M 3481 434 
Q 3481 -459 3084 -895 
Q 2688 -1331 1869 -1331 
Q 1566 -1331 1297 -1286 
Q 1028 -1241 775 -1147 
L 775 -588 
Q 1028 -725 1275 -790 
Q 1522 -856 1778 -856 
Q 2344 -856 2625 -561 
Q 2906 -266 2906 331 
L 2906 616 
Q 2728 306 2450 153 
Q 2172 0 1784 0 
Q 1141 0 747 490 
Q 353 981 353 1791 
Q 353 2603 747 3093 
Q 1141 3584 1784 3584 
Q 2172 3584 2450 3431 
Q 2728 3278 2906 2969 
L 2906 3500 
L 3481 3500 
L 3481 434 
z
" transform="scale(0.015625)"/>
      <path id="DejaVuSans-65" d="M 3597 1894 
L 3597 1613 
L 953 1613 
Q 991 1019 1311 708 
Q 1631 397 2203 397 
Q 2534 397 2845 478 
Q 3156 559 3463 722 
L 3463 178 
Q 3153 47 2828 -22 
Q 2503 -91 2169 -91 
Q 1331 -91 842 396 
Q 353 884 353 1716 
Q 353 2575 817 3079 
Q 1281 3584 2069 3584 
Q 2775 3584 3186 3129 
Q 3597 2675 3597 1894 
z
M 3022 2063 
Q 3016 2534 2758 2815 
Q 2500 3097 2075 3097 
Q 1594 3097 1305 2825 
Q 1016 2553 972 2059 
L 3022 2063 
z
" transform="scale(0.015625)"/>
      <path id="DejaVuSans-74" d="M 1172 4494 
L 1172 3500 
L 2356 3500 
L 2356 3053 
L 1172 3053 
L 1172 1153 
Q 1172 725 1289 603 
Q 1406 481 1766 481 
L 2356 481 
L 2356 0 
L 1766 0 
Q 1100 0 847 248 
Q 594 497 594 1153 
L 594 3053 
L 172 3053 
L 172 3500 
L 594 3500 
L 594 4494 
L 1172 4494 
z
" transform="scale(0.015625)"/>
      <path id="DejaVuSans-5f" d="M 3263 -1063 
L 3263 -1509 
L -63 -1509 
L -63 -1063 
L 3263 -1063 
z
" transform="scale(0.015625)"/>
      <path id="DejaVuSans-73" d="M 2834 3397 
L 2834 2853 
Q 2591 2978 2328 3040 
Q 2066 3103 1784 3103 
Q 1356 3103 1142 2972 
Q 928 2841 928 2578 
Q 928 2378 1081 2264 
Q 1234 2150 1697 2047 
L 1894 2003 
Q 2506 1872 2764 1633 
Q 3022 1394 3022 966 
Q 3022 478 2636 193 
Q 2250 -91 1575 -91 
Q 1294 -91 989 -36 
Q 684 19 347 128 
L 347 722 
Q 666 556 975 473 
Q 1284 391 1588 391 
Q 1994 391 2212 530 
Q 2431 669 2431 922 
Q 2431 1156 2273 1281 
Q 2116 1406 1581 1522 
L 1381 1569 
Q 847 1681 609 1914 
Q 372 2147 372 2553 
Q 372 3047 722 3315 
Q 1072 3584 1716 3584 
Q 2034 3584 2315 3537 
Q 2597 3491 2834 3397 
z
" transform="scale(0.015625)"/>
      <path id="DejaVuSans-75" d="M 544 1381 
L 544 3500 
L 1119 3500 
L 1119 1403 
Q 1119 906 1312 657 
Q 1506 409 1894 409 
Q 2359 409 2629 706 
Q 2900 1003 2900 1516 
L 2900 3500 
L 3475 3500 
L 3475 0 
L 2900 0 
L 2900 538 
Q 2691 219 2414 64 
Q 2138 -91 1772 -91 
Q 1169 -91 856 284 
Q 544 659 544 1381 
z
M 1991 3584 
L 1991 3584 
z
" transform="scale(0.015625)"/>
      <path id="DejaVuSans-62" d="M 3116 1747 
Q 3116 2381 2855 2742 
Q 2594 3103 2138 3103 
Q 1681 3103 1420 2742 
Q 1159 2381 1159 1747 
Q 1159 1113 1420 752 
Q 1681 391 2138 391 
Q 2594 391 2855 752 
Q 3116 1113 3116 1747 
z
M 1159 2969 
Q 1341 3281 1617 3432 
Q 1894 3584 2278 3584 
Q 2916 3584 3314 3078 
Q 3713 2572 3713 1747 
Q 3713 922 3314 415 
Q 2916 -91 2278 -91 
Q 1894 -91 1617 61 
Q 1341 213 1159 525 
L 1159 0 
L 581 0 
L 581 4863 
L 1159 4863 
L 1159 2969 
z
" transform="scale(0.015625)"/>
      <path id="DejaVuSans-63" d="M 3122 3366 
L 3122 2828 
Q 2878 2963 2633 3030 
Q 2388 3097 2138 3097 
Q 1578 3097 1268 2742 
Q 959 2388 959 1747 
Q 959 1106 1268 751 
Q 1578 397 2138 397 
Q 2388 397 2633 464 
Q 2878 531 3122 666 
L 3122 134 
Q 2881 22 2623 -34 
Q 2366 -91 2075 -91 
Q 1284 -91 818 406 
Q 353 903 353 1747 
Q 353 2603 823 3093 
Q 1294 3584 2113 3584 
Q 2378 3584 2631 3529 
Q 2884 3475 3122 3366 
z
" transform="scale(0.015625)"/>
      <path id="DejaVuSans-72" d="M 2631 2963 
Q 2534 3019 2420 3045 
Q 2306 3072 2169 3072 
Q 1681 3072 1420 2755 
Q 1159 2438 1159 1844 
L 1159 0 
L 581 0 
L 581 3500 
L 1159 3500 
L 1159 2956 
Q 1341 3275 1631 3429 
Q 1922 3584 2338 3584 
Q 2397 3584 2469 3576 
Q 2541 3569 2628 3553 
L 2631 2963 
z
" transform="scale(0.015625)"/>
      <path id="DejaVuSans-69" d="M 603 3500 
L 1178 3500 
L 1178 0 
L 603 0 
L 603 3500 
z
M 603 4863 
L 1178 4863 
L 1178 4134 
L 603 4134 
L 603 4863 
z
" transform="scale(0.015625)"/>
      <path id="DejaVuSans-20" transform="scale(0.015625)"/>
      <path id="DejaVuSans-68" d="M 3513 2113 
L 3513 0 
L 2938 0 
L 2938 2094 
Q 2938 2591 2744 2837 
Q 2550 3084 2163 3084 
Q 1697 3084 1428 2787 
Q 1159 2491 1159 1978 
L 1159 0 
L 581 0 
L 581 4863 
L 1159 4863 
L 1159 2956 
Q 1366 3272 1645 3428 
Q 1925 3584 2291 3584 
Q 2894 3584 3203 3211 
Q 3513 2838 3513 2113 
z
" transform="scale(0.015625)"/>
      <path id="DejaVuSans-6f" d="M 1959 3097 
Q 1497 3097 1228 2736 
Q 959 2375 959 1747 
Q 959 1119 1226 758 
Q 1494 397 1959 397 
Q 2419 397 2687 759 
Q 2956 1122 2956 1747 
Q 2956 2369 2687 2733 
Q 2419 3097 1959 3097 
z
M 1959 3584 
Q 2709 3584 3137 3096 
Q 3566 2609 3566 1747 
Q 3566 888 3137 398 
Q 2709 -91 1959 -91 
Q 1206 -91 779 398 
Q 353 888 353 1747 
Q 353 2609 779 3096 
Q 1206 3584 1959 3584 
z
" transform="scale(0.015625)"/>
      <path id="DejaVuSans-79" d="M 2059 -325 
Q 1816 -950 1584 -1140 
Q 1353 -1331 966 -1331 
L 506 -1331 
L 506 -850 
L 844 -850 
Q 1081 -850 1212 -737 
Q 1344 -625 1503 -206 
L 1606 56 
L 191 3500 
L 800 3500 
L 1894 763 
L 2988 3500 
L 3597 3500 
L 2059 -325 
z
" transform="scale(0.015625)"/>
     </defs>
     <use xlink:href="#DejaVuSans-67"/>
     <use xlink:href="#DejaVuSans-65" x="63.476562"/>
     <use xlink:href="#DejaVuSans-74" x="125"/>
     <use xlink:href="#DejaVuSans-5f" x="164.208984"/>
     <use xlink:href="#DejaVuSans-73" x="214.208984"/>
     <use xlink:href="#DejaVuSans-75" x="266.308594"/>
     <use xlink:href="#DejaVuSans-62" x="329.6875"/>
     <use xlink:href="#DejaVuSans-73" x="393.164062"/>
     <use xlink:href="#DejaVuSans-63" x="445.263672"/>
     <use xlink:href="#DejaVuSans-72" x="500.244141"/>
     <use xlink:href="#DejaVuSans-69" x="541.357422"/>
     <use xlink:href="#DejaVuSans-62" x="569.140625"/>
     <use xlink:href="#DejaVuSans-65" x="632.617188"/>
     <use xlink:href="#DejaVuSans-20" x="694.140625"/>
     <use xlink:href="#DejaVuSans-68" x="725.927734"/>
     <use xlink:href="#DejaVuSans-69" x="789.306641"/>
     <use xlink:href="#DejaVuSans-73" x="817.089844"/>
     <use xlink:href="#DejaVuSans-74" x="869.189453"/>
     <use xlink:href="#DejaVuSans-6f" x="908.398438"/>
     <use xlink:href="#DejaVuSans-72" x="969.580078"/>
     <use xlink:href="#DejaVuSans-79" x="1010.693359"/>
    </g>
   </g>
   <g id="legend_1">
    <g id="line2d_35">
     <path d="M 815.08 328.498438 
L 825.08 328.498438 
L 835.08 328.498438 
" style="fill: none; stroke: #1f77b4; stroke-width: 1.5; stroke-linecap: square"/>
    </g>
    <g id="text_18">
     <!-- star -->
     <g style="fill: #a9a9a9" transform="translate(843.08 331.998438) scale(0.1 -0.1)">
      <defs>
       <path id="DejaVuSans-61" d="M 2194 1759 
Q 1497 1759 1228 1600 
Q 959 1441 959 1056 
Q 959 750 1161 570 
Q 1363 391 1709 391 
Q 2188 391 2477 730 
Q 2766 1069 2766 1631 
L 2766 1759 
L 2194 1759 
z
M 3341 1997 
L 3341 0 
L 2766 0 
L 2766 531 
Q 2569 213 2275 61 
Q 1981 -91 1556 -91 
Q 1019 -91 701 211 
Q 384 513 384 1019 
Q 384 1609 779 1909 
Q 1175 2209 1959 2209 
L 2766 2209 
L 2766 2266 
Q 2766 2663 2505 2880 
Q 2244 3097 1772 3097 
Q 1472 3097 1187 3025 
Q 903 2953 641 2809 
L 641 3341 
Q 956 3463 1253 3523 
Q 1550 3584 1831 3584 
Q 2591 3584 2966 3190 
Q 3341 2797 3341 1997 
z
" transform="scale(0.015625)"/>
      </defs>
      <use xlink:href="#DejaVuSans-73"/>
      <use xlink:href="#DejaVuSans-74" x="52.099609"/>
      <use xlink:href="#DejaVuSans-61" x="91.308594"/>
      <use xlink:href="#DejaVuSans-72" x="152.587891"/>
     </g>
    </g>
    <g id="line2d_36">
     <path d="M 815.08 343.176562 
L 825.08 343.176562 
L 835.08 343.176562 
" style="fill: none; stroke: #ff7f0e; stroke-width: 1.5; stroke-linecap: square"/>
    </g>
    <g id="text_19">
     <!-- fork -->
     <g style="fill: #a9a9a9" transform="translate(843.08 346.676562) scale(0.1 -0.1)">
      <defs>
       <path id="DejaVuSans-66" d="M 2375 4863 
L 2375 4384 
L 1825 4384 
Q 1516 4384 1395 4259 
Q 1275 4134 1275 3809 
L 1275 3500 
L 2222 3500 
L 2222 3053 
L 1275 3053 
L 1275 0 
L 697 0 
L 697 3053 
L 147 3053 
L 147 3500 
L 697 3500 
L 697 3744 
Q 697 4328 969 4595 
Q 1241 4863 1831 4863 
L 2375 4863 
z
" transform="scale(0.015625)"/>
       <path id="DejaVuSans-6b" d="M 581 4863 
L 1159 4863 
L 1159 1991 
L 2875 3500 
L 3609 3500 
L 1753 1863 
L 3688 0 
L 2938 0 
L 1159 1709 
L 1159 0 
L 581 0 
L 581 4863 
z
" transform="scale(0.015625)"/>
      </defs>
      <use xlink:href="#DejaVuSans-66"/>
      <use xlink:href="#DejaVuSans-6f" x="35.205078"/>
      <use xlink:href="#DejaVuSans-72" x="96.386719"/>
      <use xlink:href="#DejaVuSans-6b" x="137.5"/>
     </g>
    </g>
   </g>
  </g>
 </g>
 <defs>
  <clipPath id="pbfd9f6ba0d">
   <rect x="108" y="43.2" width="669.6" height="277.2"/>
  </clipPath>
 </defs>
</svg>
